<?xml version="1.0" encoding="UTF-8" standalone="no" ?>
<!DOCTYPE svg PUBLIC "-//W3C//DTD SVG 1.1//EN" "http://www.w3.org/Graphics/SVG/1.1/DTD/svg11.dtd">
<svg xmlns="http://www.w3.org/2000/svg" xmlns:xlink="http://www.w3.org/1999/xlink" version="1.1" width="1080" height="1080" viewBox="0 0 1080 1080" xml:space="preserve">
<desc>Created with Fabric.js 5.2.4</desc>
<defs>
</defs>
<rect x="0" y="0" width="100%" height="100%" fill="transparent"></rect>
<g transform="matrix(1 0 0 1 540 540)" id="0e9ddb15-92b4-49b7-af8d-2e7477f2ecb1"  >
<rect style="stroke: none; stroke-width: 1; stroke-dasharray: none; stroke-linecap: butt; stroke-dashoffset: 0; stroke-linejoin: miter; stroke-miterlimit: 4; fill: rgb(255,255,255); fill-rule: nonzero; opacity: 1; visibility: hidden;" vector-effect="non-scaling-stroke"  x="-540" y="-540" rx="0" ry="0" width="1080" height="1080" />
</g>
<g transform="matrix(1 0 0 1 540 540)" id="e3164202-2312-491a-96b0-c6c776e05ad2"  >
</g>
<g transform="matrix(3.23 0 0 3.23 373.24 413.92)"  >
<g style="" vector-effect="non-scaling-stroke"   >
		<g transform="matrix(2.81 0 0 2.81 11.36 0)"  >
<path style="stroke: none; stroke-width: 1; stroke-dasharray: none; stroke-linecap: butt; stroke-dashoffset: 0; stroke-linejoin: miter; stroke-miterlimit: 10; fill: rgb(255,255,255); fill-rule: nonzero; opacity: 1;" vector-effect="non-scaling-stroke"  transform=" translate(-50.04, -45)" d="M 80.959 78.79 L 19.13 78.79 C 17.541999999999998 78.79 16.253999999999998 77.50200000000001 16.253999999999998 75.914 L 16.253999999999998 14.085 C 16.253999999999998 12.497 17.541999999999998 11.209000000000001 19.13 11.209000000000001 L 80.959 11.209000000000001 C 82.547 11.209000000000001 83.83500000000001 12.497000000000002 83.83500000000001 14.085 L 83.83500000000001 75.914 C 83.835 77.503 82.547 78.79 80.959 78.79 z" stroke-linecap="round" />
</g>
		<g transform="matrix(2.81 0 0 2.81 11.36 0)"  >
<path style="stroke: none; stroke-width: 1; stroke-dasharray: none; stroke-linecap: butt; stroke-dashoffset: 0; stroke-linejoin: miter; stroke-miterlimit: 10; fill: rgb(25,117,76); fill-rule: nonzero; opacity: 1;" vector-effect="non-scaling-stroke"  transform=" translate(-50.04, -45)" d="M 80.959 80.79 L 19.13 80.79 C 16.442 80.79 14.253999999999998 78.60300000000001 14.253999999999998 75.915 L 14.253999999999998 14.085000000000008 C 14.253999999999998 11.397000000000007 16.441999999999997 9.209000000000007 19.13 9.209000000000007 L 80.959 9.209000000000007 C 83.647 9.209000000000007 85.83500000000001 11.397000000000007 85.83500000000001 14.085000000000008 L 85.83500000000001 75.915 C 85.835 78.604 83.647 80.79 80.959 80.79 z M 19.13 13.209 C 18.647 13.209 18.253999999999998 13.602 18.253999999999998 14.084999999999999 L 18.253999999999998 75.91499999999999 C 18.253999999999998 76.39699999999999 18.647 76.78999999999999 19.13 76.78999999999999 L 80.959 76.78999999999999 C 81.44200000000001 76.78999999999999 81.83500000000001 76.39699999999999 81.83500000000001 75.91499999999999 L 81.83500000000001 14.084999999999994 C 81.83500000000001 13.601999999999993 81.44200000000001 13.208999999999994 80.959 13.208999999999994 L 19.13 13.208999999999994 z" stroke-linecap="round" />
</g>
		<g transform="matrix(2.81 0 0 2.81 64.67 -63.31)"  >
<rect style="stroke: none; stroke-width: 1; stroke-dasharray: none; stroke-linecap: butt; stroke-dashoffset: 0; stroke-linejoin: miter; stroke-miterlimit: 10; fill: rgb(25,117,76); fill-rule: nonzero; opacity: 1;" vector-effect="non-scaling-stroke"  x="-7.965" y="-2" rx="0" ry="0" width="15.93" height="4" />
</g>
		<g transform="matrix(2.81 0 0 2.81 64.67 -31.64)"  >
<rect style="stroke: none; stroke-width: 1; stroke-dasharray: none; stroke-linecap: butt; stroke-dashoffset: 0; stroke-linejoin: miter; stroke-miterlimit: 10; fill: rgb(25,117,76); fill-rule: nonzero; opacity: 1;" vector-effect="non-scaling-stroke"  x="-7.965" y="-2" rx="0" ry="0" width="15.93" height="4" />
</g>
		<g transform="matrix(2.81 0 0 2.81 64.67 0)"  >
<rect style="stroke: none; stroke-width: 1; stroke-dasharray: none; stroke-linecap: butt; stroke-dashoffset: 0; stroke-linejoin: miter; stroke-miterlimit: 10; fill: rgb(25,117,76); fill-rule: nonzero; opacity: 1;" vector-effect="non-scaling-stroke"  x="-7.965" y="-2" rx="0" ry="0" width="15.93" height="4" />
</g>
		<g transform="matrix(2.81 0 0 2.81 64.67 31.64)"  >
<rect style="stroke: none; stroke-width: 1; stroke-dasharray: none; stroke-linecap: butt; stroke-dashoffset: 0; stroke-linejoin: miter; stroke-miterlimit: 10; fill: rgb(25,117,76); fill-rule: nonzero; opacity: 1;" vector-effect="non-scaling-stroke"  x="-7.965" y="-2" rx="0" ry="0" width="15.93" height="4" />
</g>
		<g transform="matrix(2.81 0 0 2.81 64.67 63.31)"  >
<rect style="stroke: none; stroke-width: 1; stroke-dasharray: none; stroke-linecap: butt; stroke-dashoffset: 0; stroke-linejoin: miter; stroke-miterlimit: 10; fill: rgb(25,117,76); fill-rule: nonzero; opacity: 1;" vector-effect="non-scaling-stroke"  x="-7.965" y="-2" rx="0" ry="0" width="15.93" height="4" />
</g>
		<g transform="matrix(2.81 0 0 2.81 4.84 -63.31)"  >
<rect style="stroke: none; stroke-width: 1; stroke-dasharray: none; stroke-linecap: butt; stroke-dashoffset: 0; stroke-linejoin: miter; stroke-miterlimit: 10; fill: rgb(25,117,76); fill-rule: nonzero; opacity: 1;" vector-effect="non-scaling-stroke"  x="-7.965" y="-2" rx="0" ry="0" width="15.93" height="4" />
</g>
		<g transform="matrix(2.81 0 0 2.81 4.84 -31.64)"  >
<rect style="stroke: none; stroke-width: 1; stroke-dasharray: none; stroke-linecap: butt; stroke-dashoffset: 0; stroke-linejoin: miter; stroke-miterlimit: 10; fill: rgb(25,117,76); fill-rule: nonzero; opacity: 1;" vector-effect="non-scaling-stroke"  x="-7.965" y="-2" rx="0" ry="0" width="15.93" height="4" />
</g>
		<g transform="matrix(2.81 0 0 2.81 4.84 0)"  >
<rect style="stroke: none; stroke-width: 1; stroke-dasharray: none; stroke-linecap: butt; stroke-dashoffset: 0; stroke-linejoin: miter; stroke-miterlimit: 10; fill: rgb(25,117,76); fill-rule: nonzero; opacity: 1;" vector-effect="non-scaling-stroke"  x="-7.965" y="-2" rx="0" ry="0" width="15.93" height="4" />
</g>
		<g transform="matrix(2.81 0 0 2.81 4.84 31.64)"  >
<rect style="stroke: none; stroke-width: 1; stroke-dasharray: none; stroke-linecap: butt; stroke-dashoffset: 0; stroke-linejoin: miter; stroke-miterlimit: 10; fill: rgb(25,117,76); fill-rule: nonzero; opacity: 1;" vector-effect="non-scaling-stroke"  x="-7.965" y="-2" rx="0" ry="0" width="15.93" height="4" />
</g>
		<g transform="matrix(2.81 0 0 2.81 4.84 63.31)"  >
<rect style="stroke: none; stroke-width: 1; stroke-dasharray: none; stroke-linecap: butt; stroke-dashoffset: 0; stroke-linejoin: miter; stroke-miterlimit: 10; fill: rgb(25,117,76); fill-rule: nonzero; opacity: 1;" vector-effect="non-scaling-stroke"  x="-7.965" y="-2" rx="0" ry="0" width="15.93" height="4" />
</g>
		<g transform="matrix(2.81 0 0 2.81 -48.48 0)"  >
<polygon style="stroke: none; stroke-width: 1; stroke-dasharray: none; stroke-linecap: butt; stroke-dashoffset: 0; stroke-linejoin: miter; stroke-miterlimit: 10; fill: rgb(25,117,76); fill-rule: nonzero; opacity: 1;" vector-effect="non-scaling-stroke"  points="22.58,45 -22.58,33.79 -22.58,-33.79 22.58,-45 " />
</g>
		<g transform="matrix(2.81 0 0 2.81 -53.47 0)"  >
<polygon style="stroke: none; stroke-width: 1; stroke-dasharray: none; stroke-linecap: butt; stroke-dashoffset: 0; stroke-linejoin: miter; stroke-miterlimit: 10; fill: rgb(255,255,255); fill-rule: nonzero; opacity: 1;" vector-effect="non-scaling-stroke"  points="11.17,-16.79 4.04,-16.38 -0.3,-7.28 -4.42,-15.9 -11.18,-15.52 -3.78,0 -11.18,15.52 -4.42,15.9 -0.3,7.28 4.04,16.38 11.17,16.79 3.16,0 " />
</g>
</g>
</g>
<g transform="matrix(7.53 0 0 7.17 842.87 746.67)" id="7d58a69f-bca6-4210-99a5-ca3b2e983159"  >
<polygon style="stroke: rgb(0,0,0); stroke-width: 0; stroke-dasharray: none; stroke-linecap: butt; stroke-dashoffset: 0; stroke-linejoin: miter; stroke-miterlimit: 4; fill: rgb(0,0,0); fill-rule: nonzero; opacity: 1;" vector-effect="non-scaling-stroke"  points="0,36.77 15.28,20.24 30.55,3.71 11.79,3.71 11.79,-36.77 -12.82,-36.77 -12.82,3.71 -30.55,3.71 -15.28,20.24 " />
</g>
<g transform="matrix(5 0 0 2.14 844.68 1046.59)" id="d7865e4c-a8c3-4c32-86f1-c41c2cf9b85c"  >
<path style="stroke: rgb(0,0,0); stroke-width: 0; stroke-dasharray: none; stroke-linecap: butt; stroke-dashoffset: 0; stroke-linejoin: miter; stroke-miterlimit: 4; fill: rgb(0,0,0); fill-rule: nonzero; opacity: 1;" vector-effect="non-scaling-stroke"  transform=" translate(-50, -50)" d="M 94.75 50 C 94.75 56.213 89.514 61.25 83.054 61.25 L 16.946 61.25 C 10.486 61.25 5.25 56.213 5.25 50 L 5.25 50 C 5.25 43.787 10.486 38.75 16.945999999999998 38.75 L 83.053 38.75 C 89.514 38.75 94.75 43.787 94.75 50 L 94.75 50 z" stroke-linecap="round" />
</g>
</svg>