<?xml version="1.0" encoding="utf-8"?>
<!-- Generator: Adobe Illustrator 21.1.0, SVG Export Plug-In . SVG Version: 6.00 Build 0)  -->
<svg version="1.1" id="Layer_1" xmlns="http://www.w3.org/2000/svg" xmlns:xlink="http://www.w3.org/1999/xlink" x="0px" y="0px"
	 viewBox="0 0 200 257.9" style="enable-background:new 0 0 200 257.9;" xml:space="preserve">
<style type="text/css">
	.st0{fill:#312F31;}
	.st1{fill:#B07728;}
	.st2{fill:#B6792E;}
	.st3{fill:#FFFFFF;}
</style>
<g>
	<g>
		<g>
			<path class="st2" d="M93.3,43.3l0.6,0.6c0.1,0.1,0.4,0.2,0.6,0.1l0.8-0.2l1.6-0.5l1.6,2.8l1.3,2.2c0.2,0.3,0.6,0.3,0.8,0l1.3-2.2
				l1.6-2.8l1.6,0.5l0.8,0.2c0.2,0.1,0.4,0,0.6-0.1l0.6-0.6l1.3-1.3c0.6-0.6,0.7-1.4,0.4-2.1l-0.5-1.2h-1.3h-3.6h-0.8h0l-1.3-2
				c-0.2-0.4-0.6-0.6-1-0.6c-0.4,0-0.8,0.2-1,0.6l-1.3,2h0h-0.8h-3.6H92l-0.5,1.2c-0.3,0.7-0.1,1.6,0.4,2.1L93.3,43.3z M103.1,40.4
				c0.1-0.1,0.2-0.2,0.3-0.2h3.6c0.1,0,0.3,0.1,0.3,0.2c0,0.1,0,0.3-0.1,0.4l-1.3,1.3c-0.1,0.1-0.1,0.1-0.2,0.1c0,0-0.1,0-0.1,0
				l-1.8-0.6c-0.1,0-0.1-0.1-0.2-0.1l-0.5-0.8C103.1,40.6,103.1,40.5,103.1,40.4z M98,41.9l0.9-1.5c0.1-0.1,0.2-0.2,0.3-0.2h1.7
				c0.1,0,0.2,0.1,0.3,0.2l0.9,1.5c0.1,0.1,0.1,0.2,0,0.3l-1.7,3c-0.1,0.1-0.2,0.2-0.3,0.2c-0.1,0-0.2-0.1-0.3-0.2l-1.7-3
				C97.9,42.2,97.9,42,98,41.9z M92.6,40.5c0-0.1,0.2-0.2,0.3-0.2h3.6c0.1,0,0.2,0.1,0.3,0.2c0.1,0.1,0.1,0.2,0,0.3l-0.5,0.8
				c0,0.1-0.1,0.1-0.2,0.1l-1.8,0.6c0,0-0.1,0-0.1,0c-0.1,0-0.2,0-0.2-0.1l-1.3-1.3C92.6,40.7,92.6,40.6,92.6,40.5z"/>
		</g>
		<g>
			<path class="st2" d="M113.2,63.8v-0.6h-3.6c-0.8,0-1.5,0.7-1.5,1.5v0.6h3.6C112.6,65.3,113.2,64.6,113.2,63.8z"/>
			<path class="st2" d="M136.8,62.3h-0.6h-0.3c0,0,0,0,0,0c-1.3,0-2.5,0.5-3.4,1.4c-0.9,0.9-1.4,2.1-1.4,3.4c0,1.3,0.5,2.5,1.4,3.4
				l0.3,0.3c1.1,1.1,1.1,2.9,0,4l-0.3,0.3l-3.3-2.4l1-0.8l0-8.5c0-1.5-0.6-2.8-1.6-3.8c-1-1-2.4-1.6-3.8-1.6h-5.4l0,0h-1.7
				c-0.3,0-0.5,0.4-0.3,0.6l0.8,1l-3.3,1.3c-0.4,0.1-0.7,0.5-0.7,1v3.7c0,0.3,0.1,0.6,0.3,0.8l0.9,0.9c0.2,0.2,0.5,0.3,0.8,0.3h1.5
				l-0.2,0.2c-0.2,0.2-0.4,0.4-0.6,0.7h-2.7l-0.1-0.1c-1.1-1.4-2.3-2-3.8-2l-2.2,0v2.7c0,0.4,0.2,0.9,0.4,1.2l1.8,2.3
				c-0.1,0-0.1,0-0.2,0H108v2.8c0,0.4,0.2,0.9,0.4,1.2l2.4,3.1c0.3,0.4,0.7,0.6,1.2,0.6h4.4c-0.2,0.4-0.2,0.8-0.2,1.2v1.6l1.4,1.1
				c0,0,0,0.1,0,0.1l-1,0.8H115c-1.7,0-3,1.4-3,3v2.7h8.2l6.1-6.8l1.6,1h-0.6c-1.7,0-3,1.4-3,3v2.7h7.1l4.6-3.7l0.1-0.1
				c0.4-0.4,0.6-0.9,0.6-1.5c0-0.5-0.2-1.1-0.6-1.4l-2.6-3.1v-4.3l0.7-0.7c1.9-1.9,1.9-5,0-6.8l-0.3-0.3c-0.5-0.5-0.8-1.3-0.8-2
				c0-0.8,0.3-1.5,0.8-2c0.5-0.5,1.3-0.8,2-0.8c0,0,0,0,0,0h0.3v1.4c0,0.8,0.6,1.4,1.4,1.4h0.5v-3.4C138.1,63,137.5,62.3,136.8,62.3
				z M124.8,60.2c0.9,0,1.8,0.4,2.4,1c0.6,0.6,1,1.5,1,2.4l0,7.5l-4.9,3.8l-3.7-2.3l-0.5-0.3c-0.5-0.3-0.8-0.7-0.8-1.3
				c-0.1-0.5,0.1-1.1,0.6-1.4l0.9-0.8l2.8-2.5l0,0c0.3-0.3,0.4-0.7,0.4-1.1v-2.4c0-0.4-0.1-0.8-0.4-1l-1.5-1.7H124.8z M116.5,65.9
				l-0.4-0.4v-2.7l3.4-1.3l1.5,1.7v2l-1,0.9H116.5z M117.5,74.2l-0.9,0.9h-2.4l-0.1-0.1c-0.2-0.3-0.4-0.5-0.7-0.7H117.5z
				 M110.2,69.4l0-0.7h0.2c0.9,0,1.5,0.4,2.2,1.2l0.7,0.9h3c0,0.1,0,0.3,0,0.4c0,0.4,0.1,0.7,0.3,1h-4.1L110.2,69.4z M119.4,89.2
				H114v-0.7c0-0.6,0.5-1,1-1h2.3l1.6-1.3l0.1-0.1c0.8-0.8,0.8-2.1,0-3l-0.8-0.6v-0.6c0-0.7,0.6-1.2,1.2-1.2l0.4,0h1.6v0l2.1,0
				l0.9,0.7v1c0,0.3,0.1,0.7,0.3,0.9L119.4,89.2z M134.7,85.8L134.7,85.8c0.1,0.1,0.1,0.1,0.1,0.1c0,0,0,0,0,0.1l-4,3.2h-4.4v-0.7
				c0-0.6,0.5-1,1-1h2.6l0.3-0.3c0.4-0.4,0.6-0.9,0.5-1.4c0-0.5-0.3-1-0.7-1.3l-3.7-2.3v-1.8l-1.6-1.3c-0.3-0.3-0.8-0.4-1.2-0.4
				l-2.2,0v0h-9.1l-2.3-3l0-0.8h0.2c0.9,0,1.6,0.4,2.3,1.3l0.7,0.9h4.2l2.2-2.1l3.7,2.4l4.2-3.2l4,2.9v4.5c0,0.5,0.2,1,0.6,1.3
				L134.7,85.8z"/>
			<path class="st2" d="M120.2,57.3h6.1c0.2,0,0.4-0.2,0.4-0.4v-2.5c0-0.1-0.1-0.2-0.2-0.3c-0.1-0.1-0.3,0-0.3,0.1l-1.3,1.2
				l-1.3-1.2c-0.1-0.1-0.3-0.1-0.5,0l-1.3,1.1l-1.3-1.1c-0.1-0.1-0.2-0.1-0.3,0c-0.1,0.1-0.2,0.2-0.2,0.3V57
				C119.8,57.2,120,57.3,120.2,57.3z"/>
		</g>
		<g>
			<path class="st2" d="M119.8,35.5L119.8,35.5l-4.3,0c-3.3,0-6-2.4-6.5-5.7l-0.3-2.6l0.3-1c2.4-1.6,3.6-4.2,3.6-6.4
				c0-1.5-0.6-3.3-1.8-4.7c-0.6-4.1-3.5-7.4-7.2-8.7c-0.4-1.9-1.3-3.7-2.6-5.2L100,0l-1,1.1c-1.3,1.4-2.1,3.2-2.5,5.1
				c-3.8,1.3-6.7,4.6-7.3,8.7c-1.2,1.5-1.8,3.2-1.8,4.7c0,2.2,1.3,5,3.9,6.6l0,0.2c0,0,0,0.1,0,0.1l-0.4,3.1
				c-0.4,3.2-3.2,5.7-6.5,5.7h-4.3v0H36.6v1c0,0.8,0.5,1.6,1.3,1.8c2.1,0.6,3.7,2.4,3.7,4.7l0,88.9c0,12,8.2,21.9,20.4,24.6l13.3,3
				c11.5,2.6,20.8,6.8,23.1,8l0.4,0.2c0.8,0.4,1.8,0.4,2.6,0l0.4-0.2c2.3-1.3,11.5-5.5,23.1-8l13.3-3c12.2-2.7,20.4-12.6,20.4-24.6
				l0-88.9c0-2.3,1.5-4.2,3.7-4.7c0.8-0.2,1.3-1,1.3-1.8v-1H119.8z M107.3,15.5c1.4,1,2.6,2.5,2.6,4.3c0,1.7-1.2,3.3-2.6,4.3V15.5z
				 M100,8.4c3,0,5.6,1.6,7.1,3.9c-0.2-0.1-0.4-0.2-0.7-0.2l-5.6-1.5c-0.5-0.1-1.1-0.1-1.6,0l-5.5,1.5c-0.2,0.1-0.5,0.1-0.7,0.2
				C94.4,9.9,97,8.4,100,8.4z M99.1,28.9C99.4,29,99.7,29,100,29c0.3,0,0.5,0,0.8-0.1l4.9-1.3c-1.1,2.1-3.3,3.5-5.7,3.5
				c-2.4,0-4.5-1.3-5.5-3.4L99.1,28.9z M95.4,25.1V14.4l3.3-0.9V26L95.4,25.1z M101.3,26V13.5l3.3,0.9v10.7L101.3,26z M90.1,19.7
				c0-1.8,1.2-3.4,2.7-4.3v8.6C91.3,23.1,90.1,21.5,90.1,19.7z M84.4,38.1c4.4,0,8.1-3.1,9-7.3c1.6,1.8,4,2.9,6.6,2.9
				c2.5,0,4.9-1.1,6.6-2.8c0.9,4.2,4.7,7.2,9,7.2h5.9c-0.2,3.2-2.8,5.5-6.2,5.5c-0.5,0-1-0.1-1.4-0.2l-1-0.2l-0.5,0.8
				c-2.7,4.5-7.4,7.4-12.4,7.4c-4.9,0-9.6-2.8-12.4-7.4l-0.5-0.8l-1,0.2c-0.5,0.1-1,0.2-1.4,0.2c-3.4,0-6-2.3-6.2-5.5H84.4z
				 M105.6,100.4h-0.1c-0.2,0-0.4,0-0.6,0.1l-1.8-1.8c0-0.2,0.1-0.3,0.1-0.5v-2.4c0-1.2-0.9-2.1-2.1-2.1h-2.2c-0.2,0-0.4,0-0.6,0.1
				l-1.7-1.7c0-0.2,0.1-0.3,0.1-0.5v-0.2h9.1V100.4z M107.7,102.4C107.8,102.4,107.8,102.4,107.7,102.4l0,2.4c0,0,0,0.1,0,0.1h-2.2
				c0,0-0.1,0-0.1-0.1v-2.4c0,0,0,0,0.1,0H107.7z M94.3,102.6v-9h0.1c0.2,0,0.4,0,0.6-0.1l1.7,1.7c0,0.2-0.1,0.3-0.1,0.5v2.4
				c0,1.2,0.9,2.1,2.1,2.1h2.2c0.2,0,0.4,0,0.6-0.1l1.8,1.8c0,0.2-0.1,0.3-0.1,0.5v0.2H94.3z M92.2,91.6
				C92.2,91.6,92.1,91.6,92.2,91.6l-0.1-2.4c0,0,0,0,0.1,0h2.2c0,0,0,0,0,0v2.4c0,0,0,0,0,0H92.2z M98.8,98.2v-2.4c0,0,0,0,0.1,0
				h2.2c0,0,0,0,0,0v2.4c0,0,0,0.1,0,0.1L98.8,98.2C98.8,98.2,98.8,98.2,98.8,98.2z M98.8,89.3h-2.3v-0.2c0-1.2-0.9-2.1-2.1-2.1
				h-2.2c-1.2,0-2.1,0.9-2.1,2.1v2.4c0,1.2,0.9,2.1,2.1,2.1h0.1v2.1H55.2v-46c0-0.5,0.4-1,0.9-1h31.7c0.7,0.7,1.7,1.7,2.2,2
				c2.6,2,5.6,3.2,8.8,3.4V89.3z M92.3,98.1v5.5c0,0.6,0.5,1,1,1h5.5v49.3c-3.4-1.8-10.3-5.1-18.3-6.8l-15.8-3.5
				c-5.6-1.2-9.5-6.1-9.5-11.9V98.1H92.3z M101.2,104.7h2.2v0.2c0,1.2,0.9,2.1,2.1,2.1h2.2c1.2,0,2.1-0.9,2.1-2.1v-2.4
				c0-1.2-0.9-2.1-2.1-2.1h-0.1v-2.2h37.1V131c0,6.1-4.2,11.3-10.2,12.7l-15.2,3.4c-7.9,1.8-14.8,5-18.2,6.8V104.7z M107.6,95.7
				v-5.4c0-0.6-0.5-1-1-1h-5.4V54.1c3.1-0.3,6.1-1.4,8.6-3.3c0.8-0.5,1.7-1.5,2.3-2.1h31.7c0.5,0,0.9,0.4,0.9,0.9v46.2H107.6z
				 M155.7,43l0,88.9c0,10.7-7.3,19.6-18.3,22l-13.3,3c-10.6,2.3-20.2,6.3-23.8,8.3l-0.3,0.2l-0.4-0.2c-3.6-2-13.2-5.9-23.8-8.3
				l-13.3-3c-10.9-2.4-18.3-11.3-18.3-22l0-88.9c0-1.9-0.7-3.6-1.8-4.9h33.3c0.2,4.2,3.3,7.5,7.5,8.1H53.6c-0.5,0-0.9,0.4-0.9,0.9
				v84.6c0,6.9,4.7,12.8,11.5,14.3l15.8,3.5c8.7,1.9,16.4,5.9,18.6,7.1l1.4,0.8l1.4-0.8c2.1-1.2,9.8-5.1,18.6-7.1l15.2-3.4
				c7.1-1.6,12.1-7.8,12.1-15.1v-84c0-0.5-0.4-0.9-0.9-0.9h-29.7c4.2-0.6,7.3-3.9,7.5-8.1h33.4C156.4,39.4,155.7,41.1,155.7,43z"/>
		</g>
		<path class="st2" d="M92.2,63.7l-3.1-4.1c-0.3-0.4-0.8-0.7-1.4-0.7c-0.6,0-1,0.4-1.3,0.8l-1.7,3c0,0.1-0.1,0.1-0.2,0.1l-1.1-0.1
			v-3.8c0-0.7-0.4-1.2-0.9-1.5c-0.6-0.3-1.3-0.2-1.8,0.2l-5.4,4.2l-4-3.2c-0.7-0.5-1.6-0.4-2.2,0.1l-6.7,5.1
			c-0.4,0.3-0.7,0.8-0.8,1.3c-0.1,0.5,0.1,1.1,0.4,1.5c0,0.1,0.1,0.1,0.2,0.1c0.1,0,0.1,0,0.1-0.1l5.5-4.3c0,0,0,0,0,0l2.3-1.8
			l3.3,2.6c-0.4,0.3-0.7,0.8-0.7,1.3c-0.1,0.5,0.1,1.1,0.4,1.5c0,0.1,0.1,0.1,0.2,0.1c0.1,0,0.1,0,0.2,0l1.9-1.5c0,0,0,0,0,0
			l5.8-4.5v3c0,1.1,0.9,2,2,2h1.3c0.9,0,1.7-0.5,2.1-1.3l1.2-2.2l3.5,4.8c0,0.1,0.1,0.1,0.2,0.1c0.1,0,0.1,0,0.2,0
			c0.4-0.3,0.7-0.8,0.8-1.3C92.7,64.7,92.6,64.2,92.2,63.7z"/>
		<g>
			<circle class="st2" cx="74.4" cy="75.8" r="0.8"/>
			<circle class="st2" cx="75.9" cy="78.3" r="0.8"/>
			<circle class="st2" cx="79" cy="78.3" r="0.8"/>
			<circle class="st2" cx="75.9" cy="73.2" r="0.8"/>
			<circle class="st2" cx="79" cy="73.2" r="0.8"/>
			<circle class="st2" cx="77.4" cy="75.8" r="0.8"/>
			<circle class="st2" cx="80.5" cy="75.8" r="0.8"/>
			<path class="st2" d="M91.6,75.1h-6.8c-0.1-0.7-0.4-1.3-0.9-1.8c0-1-0.5-2-1.2-2.7c-0.7-0.7-1.5-1.1-2.5-1.2
				c-0.7-0.7-1.7-1.1-2.7-1.1c-1,0-1.9,0.3-2.6,0.9c-1,0-2,0.5-2.7,1.2c-0.7,0.7-1.1,1.5-1.2,2.5c-0.6,0.6-0.9,1.3-1,2.1h-5.3
				c-1.1,0-2,0.9-2,2c0,0.1,0.1,0.2,0.2,0.2h7.3c0.2,0.3,0.4,0.7,0.6,1c0,1,0.4,2,1.2,2.7c0.7,0.7,1.5,1.1,2.5,1.2
				c0.5,0.5,1.2,0.8,1.9,1V87H74c-0.7,0-1.3,0.6-1.3,1.3v0.5h8.2c0.7,0,1.3-0.6,1.3-1.3V87h-3.8v-4c0.6-0.1,1.1-0.4,1.6-0.8
				c1,0,2-0.4,2.7-1.2c0.7-0.7,1.1-1.5,1.2-2.5c0.4-0.4,0.6-0.8,0.8-1.3h5.3c1.1,0,2-0.9,2-2C91.8,75.2,91.7,75.1,91.6,75.1z
				 M82.2,77.5l-0.3,0.3l0,0.4c0,0.6-0.2,1.1-0.6,1.6c-0.4,0.4-0.9,0.6-1.5,0.6c0,0-0.1,0-0.2,0l-0.4,0l-0.3,0.3
				c-0.4,0.4-1,0.7-1.6,0.7c-0.6,0-1.2-0.3-1.6-0.7l-0.3-0.3l-0.4,0c0,0,0,0-0.1,0c-0.6,0-1.1-0.2-1.5-0.6c-0.4-0.4-0.6-0.9-0.6-1.5
				c0,0,0-0.1,0-0.2l0-0.4l-0.3-0.3c-0.4-0.4-0.7-1-0.7-1.6c0-0.6,0.3-1.2,0.7-1.6l0.3-0.3l0-0.4c0-0.6,0.2-1.1,0.6-1.6
				c0.4-0.4,1.1-0.7,1.7-0.6l0.4,0l0.3-0.3c0.4-0.4,1-0.7,1.6-0.7c0.6,0,1.2,0.3,1.6,0.7l0.3,0.3l0.4,0c0.6,0,1.1,0.2,1.6,0.6
				c0.4,0.4,0.7,1.1,0.6,1.7l0,0.4l0.3,0.3c0.4,0.4,0.7,1,0.7,1.6C83,76.5,82.7,77.1,82.2,77.5z"/>
		</g>
		<path class="st2" d="M140.6,124.7h-0.7c-0.1-0.3-0.3-0.6-0.5-0.9l-0.2-0.3c-0.1-0.1-0.1-0.2-0.1-0.3l-0.5-14.5
			c0-0.3-0.2-0.5-0.5-0.5H135c-0.3,0-0.5,0.2-0.5,0.5l-0.5,14.4l0,0.1c0,0.1,0,0.2-0.1,0.3l-0.2,0.3c0,0-0.1,0.1-0.1,0.2l0,0
			c-0.1,0.2-0.3,0.5-0.3,0.7c-0.1,0.2-0.1,0.4-0.1,0.6l0,2.5c0,0.1-0.1,0.2-0.2,0.2h-1.8c-0.1,0-0.2-0.1-0.2-0.2l0-2.6
			c0-0.2,0-0.4-0.1-0.6c-0.1-0.3-0.2-0.5-0.3-0.7c0,0,0,0,0,0c0-0.1-0.1-0.1-0.1-0.2l-0.2-0.3c-0.1-0.1-0.1-0.2-0.1-0.2l-0.5-14.4
			c0-0.3-0.2-0.5-0.5-0.5h-3.2c-0.3,0-0.5,0.2-0.5,0.5l-0.5,14.4c0,0.1,0,0.2-0.1,0.2l-0.2,0.3c0,0-0.1,0.1-0.1,0.2c0,0,0,0,0,0
			c-0.2,0.2-0.3,0.5-0.3,0.7c-0.1,0.2-0.1,0.4-0.1,0.6v1.3l0,0.1v1.2c0,0,0,0,0,0.1c0,0.1-0.1,0.1-0.1,0.1h-1.8
			c-0.1,0-0.1,0-0.1-0.1c0,0,0,0,0-0.1v-1.2h0v-1.3c0-0.2,0-0.4-0.1-0.6c-0.1-0.3-0.2-0.5-0.3-0.7c0,0,0,0,0,0
			c0-0.1-0.1-0.1-0.1-0.2l-0.2-0.3c-0.1-0.1-0.1-0.2-0.1-0.2l-0.5-14.4c0-0.3-0.2-0.5-0.5-0.5h-3.2c-0.3,0-0.5,0.2-0.5,0.5
			l-0.5,14.4c0,0.1,0,0.2-0.1,0.2l-0.2,0.3c0,0-0.1,0.1-0.1,0.2c0,0,0,0,0,0c-0.2,0.2-0.3,0.5-0.3,0.7c-0.1,0.2-0.1,0.4-0.1,0.6v2.6
			c0,0.1-0.1,0.2-0.2,0.2H113c-0.1,0-0.2-0.1-0.2-0.2v-2.5c0-0.2,0-0.4-0.1-0.6c-0.1-0.3-0.2-0.5-0.3-0.7l0,0c0-0.1-0.1-0.1-0.1-0.2
			l-0.2-0.3c-0.1-0.1-0.1-0.2-0.1-0.3l-0.5-14.5c0-0.3-0.2-0.5-0.5-0.5h-3c-0.3,0-0.5,0.2-0.5,0.5l-0.5,14.5c0,0.1,0,0.2-0.1,0.3
			l-0.2,0.3c-0.2,0.3-0.4,0.6-0.5,0.9h-0.7c-0.3,0-0.5,0.2-0.5,0.5v1.2l1.1,0.6v11.8h29.8c2.4,0,4.3-1.9,4.3-4.3V127l1.1-0.6v-1.2
			C141.1,124.9,140.9,124.7,140.6,124.7z M126.3,124.6c0.3-0.4,0.5-0.8,0.5-1.3l0.4-13.1h0.6l0.4,13.1c0,0.5,0.2,1,0.5,1.3l0.2,0.3
			h-2.8L126.3,124.6z M117.2,124.6c0.3-0.4,0.5-0.8,0.5-1.3l0.4-13.1h0.6l0.4,13.1c0,0.5,0.2,1,0.5,1.3l0.2,0.3H117L117.2,124.6z
			 M108.1,124.6c0.3-0.4,0.5-0.8,0.5-1.3l0.4-13.2h0.8l0.4,13.2c0,0.5,0.2,0.9,0.5,1.3l0.3,0.4h-3.2L108.1,124.6z M138,133.9
			c0,1.6-1.3,2.9-2.9,2.9h-18.7v-2.9c0-0.9-0.5-1.7-1.3-2.1c-0.7-0.4-1.6-0.4-2.3,0c-0.8,0.4-1.3,1.2-1.3,2.1v2.9H108v-10.2h2.8v1.5
			c0,1.1,0.9,1.9,1.9,1.9h2.3c1.1,0,1.9-0.9,1.9-1.9v-1.5h2.9v1.5c0,1.1,0.9,1.9,1.9,1.9h2.3c1.1,0,1.9-0.9,1.9-1.9v-1.5h2.9v1.5
			c0,1.1,0.9,1.9,1.9,1.9h2.3c0.2,0,0.3,0,0.5-0.1c0.8-0.2,1.4-1,1.4-1.9v-1.5h2.8V133.9z M135,125l0.3-0.4c0.3-0.4,0.5-0.8,0.5-1.3
			l0.4-13.2h0.8l0.4,13.2c0,0.5,0.2,0.9,0.5,1.3l0.3,0.4H135z"/>
		<g>
			<path class="st2" d="M83.6,133.3c-1,0-1.8,0.8-1.8,1.8v3.7h3.6v-3.7C85.4,134.1,84.6,133.3,83.6,133.3z"/>
			<path class="st2" d="M92.8,125.8h-0.7v-2.2c0-0.6-0.5-1.1-1.1-1.1l-3.4,0v-2c0-0.6-0.5-1.1-1.1-1.1h-5.7c-0.6,0-1.1,0.5-1.1,1.1
				v2l-3.4,0c-0.6,0-1.1,0.5-1.1,1.1v2.2h-0.7c-0.7,0-1.3,0.6-1.3,1.3l0,1.8c0,0.8-0.6,1.4-1.4,1.4h-0.4c-0.9,0-1.7-0.8-1.7-1.7
				v-0.8c0-0.6-0.5-1.1-1.1-1.1h-3.7c-0.6,0-1.1,0.5-1.1,1.1v0.8c0,0.9-0.8,1.7-1.7,1.7h-2v1.4c0,3.9,3.2,7.1,7.1,7.1h8.8l2.5,0
				l0-3.7c0-2.9,2.4-5.3,5.3-5.3c2.9,0,5.3,2.4,5.3,5.3v3.7l5.2,0l0-11.7C94.1,126.4,93.5,125.8,92.8,125.8z M91,136.8v-1.6
				c0-4.1-3.3-7.4-7.4-7.4c-4.1,0-7.4,3.3-7.4,7.4l0,1.6l-9.2,0c-2.6,0-4.7-1.9-5-4.4c2,0,3.6-1.7,3.7-3.7h1.9c0,2,1.7,3.7,3.7,3.7
				h0.4c1.9,0,3.5-1.5,3.5-3.5l0-1.1h0.9c0.6,0,1.1-0.5,1.1-1.1v-2.2l3.4,0c0.6,0,1.1-0.5,1.1-1.1v-2h3.8v2c0,0.6,0.5,1.1,1.1,1.1
				l3.4,0v2.2c0,0.6,0.5,1.1,1.1,1.1H92l0,8.9L91,136.8z"/>
			<path class="st2" d="M80.7,108.3c-0.6,0-1.1,0.5-1.1,1.1v4.1c-2.5,0.5-4.5,2.7-4.5,5.4v2.2c1.1,0,2.1-0.9,2.1-2.1v-0.1
				c0-1.9,1.5-3.4,3.4-3.4c0.6,0,1.1-0.5,1.1-1.1v-4h1.9h1.9v4c0,0.6,0.5,1.1,1.1,1.1c1.9,0,3.4,1.5,3.4,3.4v0.1
				c0,1.1,0.9,2.1,2.1,2.1v-2.2c0-2.7-1.9-4.9-4.5-5.4v-4.1c0-0.6-0.5-1.1-1.1-1.1h-1.9v-1.4h1.7v-2.1h-1.7v-1.6h-2.1v1.6h-1.7v2.1
				h1.7v1.4H80.7z"/>
			<path class="st2" d="M60.9,108.3v7l-0.2,0.1c-0.4,0.2-0.7,0.6-0.7,1v8.6c1.1,0,2.1-0.9,2.1-2.1v-5.5h9.3v5.4
				c0,1.1,0.9,2.1,2.1,2.1v-8.5c0-0.4-0.3-0.8-0.7-1l-0.2-0.1v-7l0.9-0.3v-4.8h-5.5v0.9c0,0.7-0.5,1.2-1.2,1.2h0
				c-0.7,0-1.2-0.5-1.2-1.2v-0.9H60v4.8L60.9,108.3z M62,105.3h2c0,0.8,0.7,1.5,1.5,1.5h1.2h1.2c0.8,0,1.5-0.7,1.5-1.5h2v1.3
				l-0.2,0.1c-0.4,0.2-0.7,0.6-0.7,1v7.7H63v-7.7c0-0.5-0.3-0.9-0.7-1l-0.2-0.1V105.3z"/>
		</g>
	</g>
	<g>
		<g>
			<path class="st2" d="M27.1,199.8H26c-0.3,0-0.6,0.3-0.5,0.7l1.6,3v0v17.2L9.6,199.8h-9c-0.3,0-0.6,0.3-0.5,0.7l1.7,3v30h8.3
				v-20.9l17.6,20.9l7.9,0v-33.7L27.1,199.8z"/>
			<path class="st2" d="M69,215.3v-12.1l-1.6-2.7c-0.1-0.4,0.2-0.7,0.5-0.7l9.8,0v15.5c0,11.5-6.5,18.4-17.5,18.4
				c-11,0-17.5-6.9-17.5-18.4v-12.1l-1.6-2.7c-0.1-0.4,0.2-0.7,0.5-0.7l9.8,0v15.5c0,7.4,2.5,10.4,8.7,10.4
				C66.4,225.7,69,222.7,69,215.3L69,215.3z"/>
			<path class="st2" d="M85,233.5v-30l-1.7-3c-0.1-0.3,0.1-0.7,0.5-0.7h31v3.7v4H93.8v5h14.8v7.7H93.8v5.7h21.6v7.7H85z"/>
			<path class="st2" d="M147.9,199.8l-9.1,24.9l-9.1-24.9h-10.9c-0.4,0-0.7,0.5-0.4,0.8l2.7,2.9l10,26.3v3.7l7.8,0l7.8,0v-3.7
				l10-26.3l2.7-2.9c0.2-0.3,0-0.8-0.4-0.8L147.9,199.8z"/>
			<path class="st2" d="M200,216.6c0,10.6-8.6,17.4-20.4,17.4c-11.8,0-20.4-6.7-20.4-17.4c0-10.6,8.6-17.4,20.4-17.4
				C191.4,199.3,200,206,200,216.6z M179.6,207.2c-7.7,0-11.4,2.4-11.4,9.4c0,7,3.7,9.4,11.4,9.4c7.7,0,11.4-2.4,11.4-9.4
				C191,209.6,187.3,207.2,179.6,207.2z"/>
		</g>
		<path class="st2" d="M11.6,244.4h3.3v13.3h-3.1l-6.9-8.2v8.2H1.5v-13.3h3.1l6.9,8.2V244.4z"/>
		<path class="st2" d="M33.5,250.6v-6.2h3.5v6.2c0,4.5-2.6,7.2-6.9,7.2s-6.9-2.7-6.9-7.2v-6.2h3.5v6.2c0,2.9,1,4.1,3.4,4.1
			S33.5,253.5,33.5,250.6L33.5,250.6z"/>
		<path class="st2" d="M48.8,254.7h8.5v3h-12v-13.3H57v3h-8.3v2h6.6v3h-6.6V254.7z"/>
		<path class="st2" d="M75.3,244.4H79l-4.9,13.3h-5l-4.9-13.3h3.8l3.6,9.8L75.3,244.4z"/>
		<path class="st2" d="M101.4,251.1c0,4.2-3.4,6.8-8,6.8s-8-2.6-8-6.8c0-4.2,3.4-6.8,8-6.8S101.4,246.9,101.4,251.1z M93.4,247.4
			c-3,0-4.5,0.9-4.5,3.7c0,2.8,1.5,3.7,4.5,3.7s4.5-0.9,4.5-3.7C97.9,248.3,96.4,247.4,93.4,247.4z"/>
		<path class="st2" d="M125.9,254.7h7.5v3h-11v-13.3h3.5V254.7z"/>
		<path class="st2" d="M144.6,254.7h8.5v3h-12v-13.3h11.7v3h-8.3v2h6.6v3h-6.6V254.7z"/>
		<path class="st2" d="M176.4,251.1c0,4.2-3.4,6.8-8,6.8c-4.7,0-8-2.6-8-6.8c0-4.2,3.4-6.8,8-6.8C173,244.2,176.4,246.9,176.4,251.1
			z M172.8,251.1c0-2.8-1.5-3.7-4.5-3.7c-3,0-4.5,0.9-4.5,3.7c0,2.8,1.5,3.7,4.5,3.7C171.4,254.8,172.8,253.9,172.8,251.1z
			 M168.3,239.3h-2.7c-0.5,0-1,0.3-1.2,0.8l-0.8,1.9h4.8h2.7c0.5,0,1-0.3,1.2-0.8l0.8-1.9H168.3z"/>
		<path class="st2" d="M194.4,244.4h3.3v13.3h-3.1l-6.9-8.2v8.2h-3.3v-13.3h3.1l6.9,8.2V244.4z"/>
		<g>
			<path class="st2" d="M22.9,187.6h6v2.1h-8.5v-9.4h8.3v2.1h-5.9v1.4h4.7v2.1h-4.7V187.6z"/>
			<path class="st2" d="M34.1,187.6h5.3v2.1h-7.8v-9.4h2.5V187.6z"/>
			<path class="st2" d="M53.6,184.6h5.4l0,5.1h-2.5V189c-0.9,0.5-2,0.8-3.2,0.8c-3.3,0-5.7-1.9-5.7-4.9c0-3,2.4-4.9,5.7-4.9
				c3.6,0,5.2,1.8,5.2,1.8l-1.7,1.4c0,0-1-1-3.5-1c-2.1,0-3.2,0.7-3.2,2.6c0,2,1,2.6,3.2,2.6c1.2,0,2-0.3,2.6-0.9h-2.3V184.6z"/>
			<path class="st2" d="M72.9,185c0,3-2.4,4.9-5.7,4.9c-3.3,0-5.7-1.9-5.7-4.9c0-3,2.4-4.9,5.7-4.9C70.5,180.1,72.9,182,72.9,185z
				 M67.2,182.4c-2.1,0-3.2,0.7-3.2,2.6c0,2,1,2.6,3.2,2.6c2.1,0,3.2-0.7,3.2-2.6C70.4,183,69.3,182.4,67.2,182.4z"/>
			<path class="st2" d="M84.5,187.1c0,1.9-1.2,2.6-3.5,2.6h-5.5v-9.4h4.7c2.4,0,3.6,0.9,3.6,2.7c0,0.8-0.2,1.4-0.7,1.8
				C84.4,185.3,84.5,186.2,84.5,187.1z M81.5,183.1c0-0.4-0.1-0.7-1.3-0.7h-2.3v1.4h2.5C81.4,183.9,81.5,183.5,81.5,183.1z
				 M77.9,187.6H81c0.7,0,1-0.3,1-0.8c0-0.5-0.2-0.8-1.6-0.8h-2.5V187.6z"/>
			<path class="st2" d="M87.2,189.7v-9.4h2.5v9.4H87.2z"/>
			<path class="st2" d="M95.1,187.6h6v2.1h-8.5v-9.4h8.3v2.1h-5.9v1.4h4.7v2.1h-4.7V187.6z"/>
			<path class="st2" d="M111.3,187l1.9,2.7h-2.9l-1.7-2.4h-2.3v2.4h-2.5v-9.4h5.9c2.8,0,3.6,2.2,3.6,3.4
				C113.3,185,112.8,186.5,111.3,187z M109.8,182.4h-3.4v2.7h3.6c1.1,0,1.1-1.2,1.1-1.2C111,183.5,110.9,182.4,109.8,182.4z"/>
			<path class="st2" d="M123.1,180.3h2.3v9.4h-2.2l-4.9-5.8v5.8H116v-9.4h2.2l4.9,5.8V180.3z"/>
			<path class="st2" d="M139.5,185c0,3-2.4,4.9-5.7,4.9c-3.3,0-5.7-1.9-5.7-4.9c0-3,2.4-4.9,5.7-4.9
				C137.1,180.1,139.5,182,139.5,185z M133.8,182.4c-2.1,0-3.2,0.7-3.2,2.6c0,2,1,2.6,3.2,2.6s3.2-0.7,3.2-2.6
				C137,183,135.9,182.4,133.8,182.4z"/>
			<path class="st2" d="M157.8,185c0,3.2-1.6,4.7-4.3,4.7h-5.2v-9.4h5.2C156.3,180.3,157.8,181.8,157.8,185z M153.5,182.4h-2.7v5.1
				h2.7c0.9,0,1.7,0.1,1.7-2.6C155.3,182.4,154.4,182.4,153.5,182.4z"/>
			<path class="st2" d="M163,187.6h6v2.1h-8.5v-9.4h8.3v2.1H163v1.4h4.7v2.1H163V187.6z"/>
			<path class="st2" d="M174.2,187.6h5.3v2.1h-7.8v-9.4h2.5V187.6z"/>
		</g>
	</g>
</g>
</svg>
