<?xml version="1.0" encoding="utf-8"?>
<!-- Generator: Adobe Illustrator 21.1.0, SVG Export Plug-In . SVG Version: 6.00 Build 0)  -->
<svg version="1.1" id="Layer_1" xmlns="http://www.w3.org/2000/svg" xmlns:xlink="http://www.w3.org/1999/xlink" x="0px" y="0px"
	 viewBox="0 0 77.5 100" style="enable-background:new 0 0 77.5 100;" xml:space="preserve">
<style type="text/css">
	.st0{fill:#312F31;}
	.st1{fill:#B07728;}
	.st2{fill:#B6792E;}
	.st3{fill:#FFFFFF;}
</style>
<g>
	<g>
		<g>
			<path class="st2" d="M36.2,16.8l0.2,0.2c0.1,0.1,0.1,0.1,0.2,0.1l0.3-0.1l0.6-0.2l0.6,1.1l0.5,0.9c0.1,0.1,0.2,0.1,0.3,0l0.5-0.9
				l0.6-1.1l0.6,0.2l0.3,0.1c0.1,0,0.2,0,0.2-0.1l0.2-0.2l0.5-0.5c0.2-0.2,0.3-0.5,0.2-0.8L41.9,15h-0.5H40h-0.3h0l-0.5-0.8
				c-0.1-0.1-0.2-0.2-0.4-0.2c-0.2,0-0.3,0.1-0.4,0.2L37.9,15h0h-0.3h-1.4h-0.5l-0.2,0.5c-0.1,0.3-0.1,0.6,0.2,0.8L36.2,16.8z
				 M40,15.7c0,0,0.1-0.1,0.1-0.1h1.4c0.1,0,0.1,0,0.1,0.1c0,0,0,0.1,0,0.1l-0.5,0.5c0,0-0.1,0-0.1,0c0,0,0,0,0,0l-0.7-0.2
				c0,0-0.1,0-0.1-0.1L40,15.8C40,15.8,40,15.7,40,15.7z M38,16.3l0.3-0.6c0,0,0.1-0.1,0.1-0.1h0.7c0,0,0.1,0,0.1,0.1l0.3,0.6
				c0,0,0,0.1,0,0.1l-0.7,1.2c0,0-0.1,0.1-0.1,0.1c0,0-0.1,0-0.1-0.1L38,16.4C38,16.3,38,16.3,38,16.3z M35.9,15.7
				c0,0,0.1-0.1,0.1-0.1h1.4c0,0,0.1,0,0.1,0.1c0,0,0,0.1,0,0.1l-0.2,0.3c0,0,0,0-0.1,0.1l-0.7,0.2c0,0,0,0,0,0c0,0-0.1,0-0.1,0
				l-0.5-0.5C35.9,15.8,35.9,15.7,35.9,15.7z"/>
		</g>
		<g>
			<path class="st2" d="M43.9,24.7v-0.2h-1.4c-0.3,0-0.6,0.3-0.6,0.6v0.2h1.4C43.6,25.3,43.9,25,43.9,24.7z"/>
			<path class="st2" d="M53,24.2h-0.2h-0.1c0,0,0,0,0,0c-0.5,0-1,0.2-1.3,0.5c-0.4,0.4-0.6,0.8-0.6,1.3c0,0.5,0.2,1,0.5,1.3l0.1,0.1
				c0.4,0.4,0.4,1.1,0,1.6l-0.1,0.1l-1.3-0.9l0.4-0.3l0-3.3c0-0.6-0.2-1.1-0.6-1.5c-0.4-0.4-0.9-0.6-1.5-0.6h-2.1l0,0h-0.7
				c-0.1,0-0.2,0.1-0.1,0.2l0.3,0.4l-1.3,0.5c-0.2,0.1-0.3,0.2-0.3,0.4v1.5c0,0.1,0,0.2,0.1,0.3l0.4,0.4c0.1,0.1,0.2,0.1,0.3,0.1
				h0.6l-0.1,0.1c-0.1,0.1-0.2,0.2-0.2,0.3h-1l0,0c-0.4-0.5-0.9-0.8-1.5-0.8l-0.8,0v1.1c0,0.2,0.1,0.3,0.2,0.5l0.7,0.9
				c0,0,0,0-0.1,0h-0.9v1.1c0,0.2,0.1,0.3,0.2,0.5L43,31c0.1,0.1,0.3,0.2,0.5,0.2h1.7c-0.1,0.1-0.1,0.3-0.1,0.5v0.6l0.5,0.4
				c0,0,0,0,0,0l-0.4,0.3h-0.6c-0.6,0-1.2,0.5-1.2,1.2v1.1h3.2l2.4-2.6l0.6,0.4h-0.2c-0.6,0-1.2,0.5-1.2,1.2v1.1H51l1.8-1.4l0,0
				c0.2-0.2,0.2-0.4,0.2-0.6c0-0.2-0.1-0.4-0.2-0.6l-1-1.2v-1.7l0.3-0.3c0.7-0.7,0.7-1.9,0-2.7l-0.1-0.1c-0.2-0.2-0.3-0.5-0.3-0.8
				c0-0.3,0.1-0.6,0.3-0.8c0.2-0.2,0.5-0.3,0.8-0.3c0,0,0,0,0,0h0.1v0.5c0,0.3,0.2,0.5,0.5,0.5h0.2v-1.3
				C53.6,24.4,53.3,24.2,53,24.2z M48.4,23.3c0.4,0,0.7,0.1,0.9,0.4c0.3,0.3,0.4,0.6,0.4,0.9l0,2.9l-1.9,1.5l-1.4-0.9L46.2,28
				c-0.2-0.1-0.3-0.3-0.3-0.5c0-0.2,0.1-0.4,0.2-0.5l0.4-0.3l1.1-1l0,0c0.1-0.1,0.2-0.3,0.2-0.4v-0.9c0-0.1-0.1-0.3-0.2-0.4L47,23.3
				H48.4z M45.2,25.6L45,25.4v-1.1l1.3-0.5l0.6,0.6v0.8l-0.4,0.3H45.2z M45.6,28.8l-0.4,0.3h-0.9l0-0.1c-0.1-0.1-0.2-0.2-0.3-0.3
				H45.6z M42.7,26.9l0-0.3h0.1c0.3,0,0.6,0.1,0.9,0.5l0.3,0.3h1.2c0,0.1,0,0.1,0,0.2c0,0.1,0,0.3,0.1,0.4h-1.6L42.7,26.9z
				 M46.3,34.6h-2.1v-0.3c0-0.2,0.2-0.4,0.4-0.4h0.9l0.6-0.5l0,0c0.3-0.3,0.3-0.8,0-1.1L45.8,32v-0.2c0-0.3,0.2-0.5,0.5-0.5l0.2,0
				h0.6v0l0.8,0l0.3,0.3v0.4c0,0.1,0,0.3,0.1,0.4L46.3,34.6z M52.2,33.3L52.2,33.3C52.2,33.3,52.2,33.3,52.2,33.3
				C52.2,33.3,52.2,33.3,52.2,33.3l-1.5,1.3H49v-0.3c0-0.2,0.2-0.4,0.4-0.4h1l0.1-0.1c0.1-0.1,0.2-0.3,0.2-0.5
				c0-0.2-0.1-0.4-0.3-0.5L49,31.9v-0.7l-0.6-0.5c-0.1-0.1-0.3-0.2-0.5-0.2l-0.8,0v0h-3.5l-0.9-1.1l0-0.3h0.1c0.4,0,0.6,0.1,0.9,0.5
				l0.3,0.3h1.6l0.9-0.8l1.4,0.9l1.6-1.2l1.5,1.1v1.7c0,0.2,0.1,0.4,0.2,0.5L52.2,33.3z"/>
			<path class="st2" d="M46.6,22.2H49c0.1,0,0.1-0.1,0.1-0.1v-1c0,0,0-0.1-0.1-0.1c0,0-0.1,0-0.1,0l-0.5,0.5L47.9,21
				c-0.1,0-0.1,0-0.2,0l-0.5,0.4L46.7,21c0,0-0.1,0-0.1,0c0,0-0.1,0.1-0.1,0.1v1C46.5,22.2,46.5,22.2,46.6,22.2z"/>
		</g>
		<g>
			<path class="st2" d="M46.4,13.7L46.4,13.7l-1.6,0c-1.3,0-2.3-0.9-2.5-2.2l-0.1-1l0.1-0.4c0.9-0.6,1.4-1.6,1.4-2.5
				c0-0.6-0.2-1.3-0.7-1.8c-0.2-1.6-1.3-2.9-2.8-3.4c-0.1-0.7-0.5-1.4-1-2L38.8,0l-0.4,0.4c-0.5,0.6-0.8,1.3-1,2
				c-1.5,0.5-2.6,1.8-2.8,3.4c-0.5,0.6-0.7,1.2-0.7,1.8c0,0.9,0.5,1.9,1.5,2.5l0,0.1c0,0,0,0,0,0l-0.2,1.2c-0.2,1.3-1.2,2.2-2.5,2.2
				h-1.7v0H14.2v0.4c0,0.3,0.2,0.6,0.5,0.7c0.8,0.2,1.4,0.9,1.4,1.8l0,34.5c0,4.7,3.2,8.5,7.9,9.5l5.1,1.1c4.5,1,8.1,2.6,8.9,3.1
				l0.1,0.1c0.3,0.2,0.7,0.2,1,0l0.1-0.1c0.9-0.5,4.5-2.1,9-3.1l5.1-1.1c4.7-1,7.9-4.9,7.9-9.5l0-34.5c0-0.9,0.6-1.6,1.4-1.8
				c0.3-0.1,0.5-0.4,0.5-0.7v-0.4H46.4z M41.6,6c0.6,0.4,1,1,1,1.7c0,0.7-0.5,1.3-1,1.7V6z M38.8,3.2c1.1,0,2.2,0.6,2.7,1.5
				c-0.1,0-0.2-0.1-0.3-0.1l-2.2-0.6c-0.2-0.1-0.4-0.1-0.6,0l-2.1,0.6c-0.1,0-0.2,0.1-0.3,0.1C36.6,3.9,37.6,3.2,38.8,3.2z
				 M38.4,11.2c0.1,0,0.2,0,0.3,0c0.1,0,0.2,0,0.3,0l1.9-0.5c-0.4,0.8-1.3,1.3-2.2,1.3c-0.9,0-1.7-0.5-2.1-1.3L38.4,11.2z M37,9.7
				V5.6l1.3-0.3v4.9L37,9.7z M39.3,10.1V5.2l1.3,0.4v4.1L39.3,10.1z M34.9,7.6c0-0.7,0.5-1.3,1-1.7v3.4C35.4,9,34.9,8.3,34.9,7.6z
				 M32.7,14.8c1.7,0,3.2-1.2,3.5-2.8c0.6,0.7,1.5,1.1,2.5,1.1c1,0,1.9-0.4,2.5-1.1c0.4,1.6,1.8,2.8,3.5,2.8h2.3
				C47,16,46,16.9,44.7,16.9c-0.2,0-0.4,0-0.6-0.1l-0.4-0.1l-0.2,0.3c-1.1,1.8-2.9,2.9-4.8,2.9c-1.9,0-3.7-1.1-4.8-2.9l-0.2-0.3
				l-0.4,0.1c-0.2,0-0.4,0.1-0.6,0.1c-1.3,0-2.3-0.9-2.4-2.1H32.7z M40.9,38.9L40.9,38.9c-0.1,0-0.2,0-0.3,0L40,38.3
				c0-0.1,0-0.1,0-0.2v-0.9c0-0.4-0.4-0.8-0.8-0.8h-0.9c-0.1,0-0.2,0-0.2,0l-0.7-0.7c0-0.1,0-0.1,0-0.2v-0.1h3.5V38.9z M41.8,39.7
				C41.8,39.7,41.8,39.7,41.8,39.7l0,0.9c0,0,0,0,0,0h-0.9c0,0,0,0,0,0v-0.9c0,0,0,0,0,0H41.8z M36.6,39.8v-3.5h0c0.1,0,0.2,0,0.2,0
				l0.7,0.7c0,0.1,0,0.1,0,0.2v0.9c0,0.4,0.4,0.8,0.8,0.8h0.9c0.1,0,0.2,0,0.2,0l0.7,0.7c0,0.1,0,0.1,0,0.2v0.1H36.6z M35.7,35.5
				C35.7,35.5,35.7,35.5,35.7,35.5l0-0.9c0,0,0,0,0,0h0.9c0,0,0,0,0,0v0.9c0,0,0,0,0,0H35.7z M38.3,38.1v-0.9c0,0,0,0,0,0h0.9
				c0,0,0,0,0,0v0.9c0,0,0,0,0,0L38.3,38.1C38.3,38.1,38.3,38.1,38.3,38.1z M38.3,34.6h-0.9v-0.1c0-0.4-0.4-0.8-0.8-0.8h-0.9
				c-0.4,0-0.8,0.4-0.8,0.8v0.9c0,0.4,0.4,0.8,0.8,0.8h0v0.8H21.4V19.3c0-0.2,0.2-0.4,0.3-0.4H34c0.3,0.3,0.7,0.6,0.9,0.8
				c1,0.8,2.2,1.2,3.4,1.3V34.6z M35.8,38v2.1c0,0.2,0.2,0.4,0.4,0.4h2.1v19.1c-1.3-0.7-4-2-7.1-2.6l-6.1-1.4
				c-2.2-0.5-3.7-2.4-3.7-4.6V38H35.8z M39.2,40.6h0.8v0.1c0,0.4,0.4,0.8,0.8,0.8h0.9c0.4,0,0.8-0.4,0.8-0.8v-0.9
				c0-0.4-0.4-0.8-0.8-0.8h0V38h14.4v12.8c0,2.4-1.6,4.4-3.9,4.9L46.3,57c-3.1,0.7-5.7,1.9-7.1,2.6V40.6z M41.7,37.1V35
				c0-0.2-0.2-0.4-0.4-0.4h-2.1V21c1.2-0.1,2.4-0.6,3.4-1.3c0.3-0.2,0.7-0.6,0.9-0.8h12.3c0.2,0,0.3,0.2,0.3,0.3v17.9H41.7z
				 M60.4,16.7l0,34.5c0,4.2-2.8,7.6-7.1,8.5l-5.1,1.1c-4.1,0.9-7.8,2.5-9.2,3.2l-0.1,0.1L38.6,64c-1.4-0.8-5.1-2.3-9.2-3.2
				l-5.1-1.1c-4.2-0.9-7.1-4.4-7.1-8.5l0-34.5c0-0.7-0.3-1.4-0.7-1.9h12.9c0.1,1.6,1.3,2.9,2.9,3.1H20.8c-0.2,0-0.3,0.2-0.3,0.3
				v32.8c0,2.7,1.8,5,4.4,5.5L31,58c3.4,0.8,6.4,2.3,7.2,2.7l0.5,0.3l0.5-0.3c0.8-0.5,3.8-2,7.2-2.7l5.9-1.3c2.8-0.6,4.7-3,4.7-5.8
				V18.3c0-0.2-0.2-0.3-0.3-0.3H45.2c1.6-0.2,2.8-1.5,2.9-3.1h12.9C60.6,15.3,60.4,15.9,60.4,16.7z"/>
		</g>
		<path class="st2" d="M35.8,24.7l-1.2-1.6c-0.1-0.2-0.3-0.3-0.5-0.3c-0.2,0-0.4,0.1-0.5,0.3l-0.6,1.2c0,0-0.1,0-0.1,0l-0.4,0v-1.5
			c0-0.3-0.1-0.5-0.4-0.6c-0.2-0.1-0.5-0.1-0.7,0.1L29.2,24l-1.6-1.2c-0.3-0.2-0.6-0.2-0.9,0l-2.6,2c-0.2,0.1-0.3,0.3-0.3,0.5
			c0,0.2,0,0.4,0.2,0.6c0,0,0,0,0.1,0c0,0,0,0,0.1,0l2.1-1.7c0,0,0,0,0,0l0.9-0.7l1.3,1c-0.2,0.1-0.3,0.3-0.3,0.5
			c0,0.2,0,0.4,0.2,0.6c0,0,0,0,0.1,0c0,0,0.1,0,0.1,0l0.7-0.6c0,0,0,0,0,0l2.2-1.7v1.2c0,0.4,0.4,0.8,0.8,0.8h0.5
			c0.3,0,0.7-0.2,0.8-0.5l0.5-0.9l1.4,1.9c0,0,0,0,0.1,0c0,0,0.1,0,0.1,0c0.2-0.1,0.3-0.3,0.3-0.5C35.9,25.1,35.9,24.9,35.8,24.7z"
			/>
		<g>
			<circle class="st2" cx="28.8" cy="29.4" r="0.3"/>
			<circle class="st2" cx="29.4" cy="30.4" r="0.3"/>
			<circle class="st2" cx="30.6" cy="30.4" r="0.3"/>
			<circle class="st2" cx="29.4" cy="28.4" r="0.3"/>
			<circle class="st2" cx="30.6" cy="28.4" r="0.3"/>
			<circle class="st2" cx="30" cy="29.4" r="0.3"/>
			<circle class="st2" cx="31.2" cy="29.4" r="0.3"/>
			<path class="st2" d="M35.5,29.1h-2.6c-0.1-0.3-0.2-0.5-0.3-0.7c0-0.4-0.2-0.8-0.5-1c-0.3-0.3-0.6-0.4-1-0.4
				c-0.3-0.3-0.7-0.4-1.1-0.4c-0.4,0-0.7,0.1-1,0.4c-0.4,0-0.8,0.2-1,0.5c-0.3,0.3-0.4,0.6-0.4,1c-0.2,0.2-0.4,0.5-0.4,0.8h-2.1
				c-0.4,0-0.8,0.3-0.8,0.8c0,0.1,0,0.1,0.1,0.1h2.8c0.1,0.1,0.1,0.3,0.2,0.4c0,0.4,0.2,0.8,0.5,1c0.3,0.3,0.6,0.4,1,0.5
				c0.2,0.2,0.5,0.3,0.7,0.4v1.5h-1c-0.3,0-0.5,0.2-0.5,0.5v0.2h3.2c0.3,0,0.5-0.2,0.5-0.5v-0.2h-1.5v-1.5c0.2-0.1,0.4-0.2,0.6-0.3
				c0.4,0,0.8-0.2,1-0.5c0.3-0.3,0.4-0.6,0.4-1c0.1-0.1,0.2-0.3,0.3-0.5h2.1C35.3,30,35.6,29.6,35.5,29.1
				C35.6,29.1,35.6,29.1,35.5,29.1z M31.9,30l-0.1,0.1l0,0.2c0,0.2-0.1,0.4-0.2,0.6c-0.2,0.2-0.4,0.2-0.6,0.2c0,0,0,0-0.1,0l-0.2,0
				l-0.1,0.1c-0.2,0.2-0.4,0.3-0.6,0.3c-0.2,0-0.5-0.1-0.6-0.3l-0.1-0.1l-0.2,0c0,0,0,0,0,0c-0.2,0-0.4-0.1-0.6-0.2
				c-0.2-0.2-0.2-0.4-0.2-0.6c0,0,0,0,0-0.1l0-0.2l-0.1-0.1c-0.2-0.2-0.3-0.4-0.3-0.6c0-0.2,0.1-0.5,0.3-0.6l0.1-0.1l0-0.2
				c0-0.2,0.1-0.4,0.2-0.6c0.2-0.2,0.4-0.3,0.7-0.2l0.2,0l0.1-0.1c0.2-0.2,0.4-0.3,0.6-0.3c0.2,0,0.5,0.1,0.6,0.3l0.1,0.1l0.2,0
				c0.2,0,0.4,0.1,0.6,0.2c0.2,0.2,0.3,0.4,0.2,0.7l0,0.2l0.1,0.1c0.2,0.2,0.3,0.4,0.3,0.6C32.2,29.6,32.1,29.9,31.9,30z"/>
		</g>
		<path class="st2" d="M54.5,48.4h-0.3c0-0.1-0.1-0.2-0.2-0.3L54,47.9c0,0,0-0.1,0-0.1l-0.2-5.6c0-0.1-0.1-0.2-0.2-0.2h-1.2
			c-0.1,0-0.2,0.1-0.2,0.2L52,47.8l0,0c0,0,0,0.1,0,0.1L51.8,48c0,0,0,0,0,0.1l0,0c-0.1,0.1-0.1,0.2-0.1,0.3c0,0.1,0,0.1,0,0.2l0,1
			c0,0,0,0.1-0.1,0.1h-0.7c0,0-0.1,0-0.1-0.1l0-1c0-0.1,0-0.1,0-0.2c0-0.1-0.1-0.2-0.1-0.3c0,0,0,0,0,0c0,0,0,0,0-0.1l-0.1-0.1
			c0,0,0-0.1,0-0.1l-0.2-5.6c0-0.1-0.1-0.2-0.2-0.2h-1.2c-0.1,0-0.2,0.1-0.2,0.2l-0.2,5.6c0,0,0,0.1,0,0.1L48.3,48c0,0,0,0,0,0.1
			c0,0,0,0,0,0c-0.1,0.1-0.1,0.2-0.1,0.3c0,0.1,0,0.2,0,0.2v0.5l0,0v0.5c0,0,0,0,0,0c0,0,0,0-0.1,0h-0.7c0,0,0,0-0.1,0c0,0,0,0,0,0
			v-0.5h0v-0.5c0-0.1,0-0.1,0-0.2c0-0.1-0.1-0.2-0.1-0.3c0,0,0,0,0,0c0,0,0,0,0-0.1L47,47.9c0,0,0-0.1,0-0.1l-0.2-5.6
			c0-0.1-0.1-0.2-0.2-0.2h-1.2c-0.1,0-0.2,0.1-0.2,0.2l-0.2,5.6c0,0,0,0.1,0,0.1L44.8,48c0,0,0,0,0,0.1c0,0,0,0,0,0
			c-0.1,0.1-0.1,0.2-0.1,0.3c0,0.1,0,0.2,0,0.2v1c0,0,0,0.1-0.1,0.1h-0.7c0,0-0.1,0-0.1-0.1v-1c0-0.1,0-0.1,0-0.2
			c0-0.1-0.1-0.2-0.1-0.3l0,0c0,0,0,0,0-0.1l-0.1-0.1c0,0,0-0.1,0-0.1l-0.2-5.6c0-0.1-0.1-0.2-0.2-0.2h-1.2c-0.1,0-0.2,0.1-0.2,0.2
			l-0.2,5.6c0,0,0,0.1,0,0.1L41.3,48c-0.1,0.1-0.1,0.2-0.2,0.3h-0.3c-0.1,0-0.2,0.1-0.2,0.2V49l0.4,0.2v4.6h11.5
			c0.9,0,1.7-0.7,1.7-1.7v-2.9l0.4-0.2v-0.5C54.7,48.4,54.6,48.4,54.5,48.4z M49,48.3c0.1-0.1,0.2-0.3,0.2-0.5l0.2-5.1h0.2l0.2,5.1
			c0,0.2,0.1,0.4,0.2,0.5l0.1,0.1h-1.1L49,48.3z M45.5,48.3c0.1-0.1,0.2-0.3,0.2-0.5l0.2-5.1H46l0.2,5.1c0,0.2,0.1,0.4,0.2,0.5
			l0.1,0.1h-1.1L45.5,48.3z M41.9,48.3c0.1-0.1,0.2-0.3,0.2-0.5l0.2-5.1h0.3l0.2,5.1c0,0.2,0.1,0.4,0.2,0.5l0.1,0.1h-1.2L41.9,48.3z
			 M53.5,51.9c0,0.6-0.5,1.1-1.1,1.1h-7.3v-1.1c0-0.3-0.2-0.7-0.5-0.8c-0.3-0.2-0.6-0.2-0.9,0c-0.3,0.2-0.5,0.5-0.5,0.8V53h-1.4v-4
			H43v0.6c0,0.4,0.3,0.8,0.8,0.8h0.9c0.4,0,0.8-0.3,0.8-0.8v-0.6h1.1v0.6c0,0.4,0.3,0.8,0.8,0.8h0.9c0.4,0,0.8-0.3,0.8-0.8v-0.6H50
			v0.6c0,0.4,0.3,0.8,0.8,0.8h0.9c0.1,0,0.1,0,0.2,0c0.3-0.1,0.6-0.4,0.6-0.7v-0.6h1.1V51.9z M52.3,48.5l0.1-0.1
			c0.1-0.1,0.2-0.3,0.2-0.5l0.2-5.1h0.3l0.2,5.1c0,0.2,0.1,0.4,0.2,0.5l0.1,0.1H52.3z"/>
		<g>
			<path class="st2" d="M32.4,51.7c-0.4,0-0.7,0.3-0.7,0.7v1.4h1.4v-1.4C33.1,52,32.8,51.7,32.4,51.7z"/>
			<path class="st2" d="M36,48.8h-0.3v-0.8c0-0.2-0.2-0.4-0.4-0.4l-1.3,0v-0.8c0-0.2-0.2-0.4-0.4-0.4h-2.2c-0.2,0-0.4,0.2-0.4,0.4
				v0.8l-1.3,0c-0.2,0-0.4,0.2-0.4,0.4v0.8h-0.3c-0.3,0-0.5,0.2-0.5,0.5l0,0.7c0,0.3-0.2,0.5-0.5,0.5h-0.2c-0.4,0-0.7-0.3-0.7-0.7
				v-0.3c0-0.2-0.2-0.4-0.4-0.4h-1.4c-0.2,0-0.4,0.2-0.4,0.4v0.3c0,0.4-0.3,0.7-0.7,0.7h-0.8v0.5c0,1.5,1.2,2.7,2.7,2.7h3.4l1,0
				l0-1.4c0-1.1,0.9-2.1,2.1-2.1c1.1,0,2.1,0.9,2.1,2.1v1.4l2,0l0-4.5C36.5,49,36.3,48.8,36,48.8z M35.3,53v-0.6
				c0-1.6-1.3-2.9-2.9-2.9c-1.6,0-2.9,1.3-2.9,2.9l0,0.6L26,53c-1,0-1.8-0.7-1.9-1.7c0.8,0,1.4-0.6,1.4-1.4h0.7
				c0,0.8,0.7,1.4,1.4,1.4h0.2c0.7,0,1.3-0.6,1.3-1.3l0-0.4h0.4c0.2,0,0.4-0.2,0.4-0.4v-0.9l1.3,0c0.2,0,0.4-0.2,0.4-0.4v-0.8h1.5
				v0.8c0,0.2,0.2,0.4,0.4,0.4l1.3,0v0.9c0,0.2,0.2,0.4,0.4,0.4h0.4l0,3.4L35.3,53z"/>
			<path class="st2" d="M31.3,42c-0.2,0-0.4,0.2-0.4,0.4V44c-1,0.2-1.7,1-1.7,2.1v0.8c0.4,0,0.8-0.4,0.8-0.8v0
				c0-0.7,0.6-1.3,1.3-1.3c0.2,0,0.4-0.2,0.4-0.4v-1.6h0.7h0.7v1.6c0,0.2,0.2,0.4,0.4,0.4c0.7,0,1.3,0.6,1.3,1.3v0
				c0,0.4,0.4,0.8,0.8,0.8v-0.8c0-1-0.7-1.9-1.7-2.1v-1.6c0-0.2-0.2-0.4-0.4-0.4h-0.7v-0.5h0.7v-0.8h-0.7V40H32v0.6h-0.7v0.8H32V42
				H31.3z"/>
			<path class="st2" d="M23.6,42v2.7l-0.1,0c-0.2,0.1-0.3,0.2-0.3,0.4v3.3c0.4,0,0.8-0.4,0.8-0.8v-2.1h3.6v2.1
				c0,0.4,0.4,0.8,0.8,0.8v-3.3c0-0.2-0.1-0.3-0.3-0.4l-0.1,0V42l0.4-0.1V40h-2.1v0.3c0,0.3-0.2,0.5-0.5,0.5h0
				c-0.3,0-0.5-0.2-0.5-0.5V40h-2.1v1.8L23.6,42z M24.1,40.8h0.8c0,0.3,0.3,0.6,0.6,0.6h0.4h0.4c0.3,0,0.6-0.3,0.6-0.6h0.8v0.5
				l-0.1,0c-0.2,0.1-0.3,0.2-0.3,0.4v3h-2.9v-3c0-0.2-0.1-0.3-0.3-0.4l-0.1,0V40.8z"/>
		</g>
	</g>
	<g>
		<g>
			<path class="st2" d="M10.5,77.5h-0.5c-0.1,0-0.2,0.1-0.2,0.3l0.6,1.2v0v6.7l-6.8-8.1H0.2c-0.1,0-0.2,0.1-0.2,0.3l0.6,1.2v11.6
				h3.2v-8.1l6.8,8.1l3.1,0V77.5L10.5,77.5z"/>
			<path class="st2" d="M26.7,83.5v-4.7l-0.6-1.1c0-0.1,0.1-0.3,0.2-0.3l3.8,0v6c0,4.5-2.5,7.1-6.8,7.1c-4.2,0-6.8-2.7-6.8-7.1v-4.7
				l-0.6-1.1c0-0.1,0.1-0.3,0.2-0.3l3.8,0v6c0,2.9,1,4,3.4,4C25.8,87.5,26.7,86.3,26.7,83.5L26.7,83.5z"/>
			<path class="st2" d="M33,90.5V78.9l-0.6-1.2c0-0.1,0.1-0.3,0.2-0.3h12v1.4v1.5h-8.2v1.9h5.8v3h-5.8v2.2h8.4v3H33z"/>
			<path class="st2" d="M57.4,77.5l-3.5,9.7l-3.5-9.7h-4.2c-0.2,0-0.3,0.2-0.2,0.3l1,1.1l3.9,10.2v1.4l3,0l3,0v-1.4l3.9-10.2l1-1.1
				c0.1-0.1,0-0.3-0.2-0.3L57.4,77.5z"/>
			<path class="st2" d="M77.5,84c0,4.1-3.3,6.7-7.9,6.7c-4.6,0-7.9-2.6-7.9-6.7c0-4.1,3.3-6.7,7.9-6.7C74.2,77.3,77.5,79.9,77.5,84z
				 M69.6,80.3c-3,0-4.4,0.9-4.4,3.7c0,2.7,1.4,3.7,4.4,3.7c3,0,4.4-0.9,4.4-3.7C74.1,81.3,72.6,80.3,69.6,80.3z"/>
		</g>
		<path class="st2" d="M4.5,94.8h1.3v5.1H4.5l-2.7-3.2v3.2H0.6v-5.1h1.2L4.5,98V94.8z"/>
		<path class="st2" d="M13,97.2v-2.4h1.3v2.4c0,1.8-1,2.8-2.7,2.8S9,98.9,9,97.2v-2.4h1.3v2.4c0,1.1,0.4,1.6,1.3,1.6
			S13,98.3,13,97.2L13,97.2z"/>
		<path class="st2" d="M18.9,98.7h3.3v1.2h-4.6v-5.1h4.6v1.2h-3.2v0.8h2.6v1.2h-2.6V98.7z"/>
		<path class="st2" d="M29.2,94.8h1.5l-1.9,5.1h-1.9l-1.9-5.1h1.5l1.4,3.8L29.2,94.8z"/>
		<path class="st2" d="M39.3,97.3c0,1.6-1.3,2.7-3.1,2.7c-1.8,0-3.1-1-3.1-2.7c0-1.6,1.3-2.7,3.1-2.7C38,94.7,39.3,95.7,39.3,97.3z
			 M36.2,95.9c-1.2,0-1.7,0.4-1.7,1.4c0,1.1,0.6,1.4,1.7,1.4c1.2,0,1.7-0.4,1.7-1.4C38,96.3,37.4,95.9,36.2,95.9z"/>
		<path class="st2" d="M48.8,98.7h2.9v1.2h-4.3v-5.1h1.3V98.7z"/>
		<path class="st2" d="M56.1,98.7h3.3v1.2h-4.6v-5.1h4.6v1.2h-3.2v0.8h2.6v1.2h-2.6V98.7z"/>
		<path class="st2" d="M68.4,97.3c0,1.6-1.3,2.7-3.1,2.7c-1.8,0-3.1-1-3.1-2.7c0-1.6,1.3-2.7,3.1-2.7C67.1,94.7,68.4,95.7,68.4,97.3
			z M67,97.3c0-1.1-0.6-1.4-1.7-1.4c-1.2,0-1.7,0.4-1.7,1.4c0,1.1,0.6,1.4,1.7,1.4C66.4,98.8,67,98.4,67,97.3z M65.3,92.8h-1.1
			c-0.2,0-0.4,0.1-0.5,0.3l-0.3,0.7h1.9h1.1c0.2,0,0.4-0.1,0.5-0.3l0.3-0.7H65.3z"/>
		<path class="st2" d="M75.4,94.8h1.3v5.1h-1.2l-2.7-3.2v3.2h-1.3v-5.1h1.2l2.7,3.2V94.8z"/>
		<g>
			<path class="st2" d="M8.9,72.7h2.3v0.8H7.9v-3.7h3.2v0.8H8.9v0.5h1.8v0.8H8.9V72.7z"/>
			<path class="st2" d="M13.2,72.7h2.1v0.8h-3v-3.7h1V72.7z"/>
			<path class="st2" d="M20.8,71.6h2.1l0,2h-1v-0.3c-0.4,0.2-0.8,0.3-1.3,0.3c-1.3,0-2.2-0.7-2.2-1.9c0-1.2,0.9-1.9,2.2-1.9
				c1.4,0,2,0.7,2,0.7l-0.7,0.6c0,0-0.4-0.4-1.4-0.4c-0.8,0-1.2,0.3-1.2,1c0,0.8,0.4,1,1.2,1c0.5,0,0.8-0.1,1-0.4h-0.9V71.6z"/>
			<path class="st2" d="M28.2,71.7c0,1.2-0.9,1.9-2.2,1.9c-1.3,0-2.2-0.7-2.2-1.9c0-1.2,0.9-1.9,2.2-1.9
				C27.3,69.8,28.2,70.6,28.2,71.7z M26,70.7c-0.8,0-1.2,0.3-1.2,1s0.4,1,1.2,1c0.8,0,1.2-0.3,1.2-1C27.3,71,26.9,70.7,26,70.7z"/>
			<path class="st2" d="M32.8,72.5c0,0.7-0.5,1-1.4,1h-2.1v-3.7h1.8c0.9,0,1.4,0.3,1.4,1c0,0.3-0.1,0.5-0.3,0.7
				C32.7,71.8,32.8,72.2,32.8,72.5z M31.6,71c0-0.2-0.1-0.3-0.5-0.3h-0.9v0.6h1C31.6,71.3,31.6,71.2,31.6,71z M30.2,72.7h1.2
				c0.3,0,0.4-0.1,0.4-0.3c0-0.2-0.1-0.3-0.6-0.3h-1V72.7z"/>
			<path class="st2" d="M33.8,73.6v-3.7h1v3.7H33.8z"/>
			<path class="st2" d="M36.9,72.7h2.3v0.8h-3.3v-3.7h3.2v0.8h-2.3v0.5h1.8v0.8h-1.8V72.7z"/>
			<path class="st2" d="M43.2,72.5l0.7,1h-1.1l-0.7-0.9h-0.9v0.9h-1v-3.7h2.3c1.1,0,1.4,0.9,1.4,1.3C43.9,71.7,43.7,72.3,43.2,72.5z
				 M42.6,70.7h-1.3v1h1.4c0.4,0,0.4-0.5,0.4-0.5C43,71.1,43,70.7,42.6,70.7z"/>
			<path class="st2" d="M47.7,69.9h0.9v3.7h-0.9l-1.9-2.3v2.3H45v-3.7h0.9l1.9,2.3V69.9z"/>
			<path class="st2" d="M54.1,71.7c0,1.2-0.9,1.9-2.2,1.9c-1.3,0-2.2-0.7-2.2-1.9c0-1.2,0.9-1.9,2.2-1.9
				C53.2,69.8,54.1,70.6,54.1,71.7z M51.9,70.7c-0.8,0-1.2,0.3-1.2,1s0.4,1,1.2,1c0.8,0,1.2-0.3,1.2-1C53.1,71,52.7,70.7,51.9,70.7z
				"/>
			<path class="st2" d="M61.2,71.7c0,1.2-0.6,1.8-1.7,1.8h-2v-3.7h2C60.6,69.9,61.2,70.5,61.2,71.7z M59.5,70.7h-1.1v2h1.1
				c0.4,0,0.7,0,0.7-1C60.2,70.7,59.9,70.7,59.5,70.7z"/>
			<path class="st2" d="M63.2,72.7h2.3v0.8h-3.3v-3.7h3.2v0.8h-2.3v0.5H65v0.8h-1.8V72.7z"/>
			<path class="st2" d="M67.5,72.7h2.1v0.8h-3v-3.7h1V72.7z"/>
		</g>
	</g>
</g>
</svg>
