<?xml version="1.0" encoding="UTF-8" standalone="no" ?>
<!DOCTYPE svg PUBLIC "-//W3C//DTD SVG 1.1//EN" "http://www.w3.org/Graphics/SVG/1.1/DTD/svg11.dtd">
<svg xmlns="http://www.w3.org/2000/svg" xmlns:xlink="http://www.w3.org/1999/xlink" version="1.1" width="1080" height="1080" viewBox="0 0 1080 1080" xml:space="preserve">
<desc>Created with Fabric.js 5.2.4</desc>
<defs>
</defs>
<rect x="0" y="0" width="100%" height="100%" fill="transparent"></rect>
<g transform="matrix(1 0 0 1 540 540)" id="0e9ddb15-92b4-49b7-af8d-2e7477f2ecb1"  >
<rect style="stroke: none; stroke-width: 1; stroke-dasharray: none; stroke-linecap: butt; stroke-dashoffset: 0; stroke-linejoin: miter; stroke-miterlimit: 4; fill: rgb(255,255,255); fill-rule: nonzero; opacity: 1; visibility: hidden;" vector-effect="non-scaling-stroke"  x="-540" y="-540" rx="0" ry="0" width="1080" height="1080" />
</g>
<g transform="matrix(1 0 0 1 540 540)" id="e3164202-2312-491a-96b0-c6c776e05ad2"  >
</g>
<g transform="matrix(5 0 0 2.14 844.68 1046.59)" id="d7865e4c-a8c3-4c32-86f1-c41c2cf9b85c"  >
<path style="stroke: rgb(0,0,0); stroke-width: 0; stroke-dasharray: none; stroke-linecap: butt; stroke-dashoffset: 0; stroke-linejoin: miter; stroke-miterlimit: 4; fill: rgb(0,0,0); fill-rule: nonzero; opacity: 1;" vector-effect="non-scaling-stroke"  transform=" translate(-50, -50)" d="M 94.75 50 C 94.75 56.213 89.514 61.25 83.054 61.25 L 16.946 61.25 C 10.486 61.25 5.25 56.213 5.25 50 L 5.25 50 C 5.25 43.787 10.486 38.75 16.945999999999998 38.75 L 83.053 38.75 C 89.514 38.75 94.75 43.787 94.75 50 L 94.75 50 z" stroke-linecap="round" />
</g>
<g transform="matrix(3.68 0 0 3.68 442.33 465.31)"  >
<g style="" vector-effect="non-scaling-stroke"   >
		<g transform="matrix(2.81 0 0 2.81 22.27 0)"  >
<path style="stroke: none; stroke-width: 1; stroke-dasharray: none; stroke-linecap: butt; stroke-dashoffset: 0; stroke-linejoin: miter; stroke-miterlimit: 10; fill: rgb(226,226,226); fill-rule: nonzero; opacity: 1;" vector-effect="non-scaling-stroke"  transform=" translate(-52.92, -45)" d="M 87.822 26.164 L 87.822 84.68299999999999 C 87.822 87.61999999999999 85.441 90 82.505 90 L 23.344 90 C 20.407 90 18.027 87.619 18.027 84.68299999999999 L 18.027 71.549 L 18.027 5.317 C 18.027 2.381 20.407 0 23.344 0 L 61.659 0 C 69.928 0.135 87.822 16.011 87.822 26.164 z" stroke-linecap="round" />
</g>
		<g transform="matrix(2.81 0 0 2.81 -21.39 15.02)"  >
<path style="stroke: none; stroke-width: 1; stroke-dasharray: none; stroke-linecap: butt; stroke-dashoffset: 0; stroke-linejoin: miter; stroke-miterlimit: 10; fill: rgb(241,86,66); fill-rule: nonzero; opacity: 1;" vector-effect="non-scaling-stroke"  transform=" translate(-37.39, -50.35)" d="M 18.027 36.039 L 65.697 36.039 C 69.507 36.039 72.596 39.128 72.596 42.938 L 72.596 64.65100000000001 C 72.596 68.46100000000001 69.507 71.55000000000001 65.697 71.55000000000001 L 9.076 71.55000000000001 C 5.266 71.55000000000001 2.1770000000000005 68.46100000000001 2.1770000000000005 64.65100000000001 L 2.1770000000000005 29.14" stroke-linecap="round" />
</g>
		<g transform="matrix(2.81 0 0 2.81 -98.06 -43.99)"  >
<path style="stroke: none; stroke-width: 1; stroke-dasharray: none; stroke-linecap: butt; stroke-dashoffset: 0; stroke-linejoin: miter; stroke-miterlimit: 10; fill: rgb(190,64,48); fill-rule: nonzero; opacity: 1;" vector-effect="non-scaling-stroke"  transform=" translate(-10.1, -29.35)" d="M 2.178 29.14 C 2.178 32.95 5.2669999999999995 36.039 9.077 36.039 L 18.027 36.039 L 18.027 22.653 L 9.077000000000002 22.653 C 5.267000000000001 22.653 2.1780000000000017 25.741999999999997 2.1780000000000017 29.552" stroke-linecap="round" />
</g>
		<g transform="matrix(2.81 0 0 2.81 -70.23 27.51)"  >
<path style="stroke: none; stroke-width: 1; stroke-dasharray: none; stroke-linecap: butt; stroke-dashoffset: 0; stroke-linejoin: miter; stroke-miterlimit: 10; fill: rgb(255,255,255); fill-rule: nonzero; opacity: 1;" vector-effect="non-scaling-stroke"  transform=" translate(-20.01, -54.79)" d="M 22.105 44.938 L 14.813 44.938 C 13.984 44.938 13.313 45.609 13.313 46.438 L 13.313 56.352000000000004 L 13.313 63.142 C 13.313 63.970000000000006 13.984 64.642 14.813 64.642 C 15.642000000000001 64.642 16.313000000000002 63.97 16.313000000000002 63.141999999999996 L 16.313000000000002 57.852 L 22.105000000000004 57.852 C 24.639000000000003 57.852 26.701000000000004 55.79 26.701000000000004 53.256 L 26.701000000000004 49.533 C 26.702 46.999 24.64 44.938 22.105 44.938 z M 23.702 53.256 C 23.702 54.136 22.986 54.852000000000004 22.106 54.852000000000004 L 16.314 54.852000000000004 L 16.314 47.938 L 22.106 47.938 C 22.986 47.938 23.702 48.654 23.702 49.534000000000006 L 23.702 53.256 z" stroke-linecap="round" />
</g>
		<g transform="matrix(2.81 0 0 2.81 -19.43 27.51)"  >
<path style="stroke: none; stroke-width: 1; stroke-dasharray: none; stroke-linecap: butt; stroke-dashoffset: 0; stroke-linejoin: miter; stroke-miterlimit: 10; fill: rgb(255,255,255); fill-rule: nonzero; opacity: 1;" vector-effect="non-scaling-stroke"  transform=" translate(-38.09, -54.79)" d="M 39.866 44.938 L 32.893 44.938 C 32.064 44.938 31.393 45.609 31.393 46.438 L 31.393 63.142 C 31.393 63.970000000000006 32.064 64.642 32.893 64.642 L 39.866 64.642 C 42.576 64.642 44.781 62.437 44.781 59.727 L 44.781 49.852 C 44.781 47.142 42.576 44.938 39.866 44.938 z M 41.781 59.727 C 41.781 60.782999999999994 40.922 61.641999999999996 39.866 61.641999999999996 L 34.393 61.641999999999996 L 34.393 47.938 L 39.866 47.938 C 40.922 47.938 41.781 48.796 41.781 49.852000000000004 L 41.781 59.727 z" stroke-linecap="round" />
</g>
		<g transform="matrix(2.81 0 0 2.81 32.38 27.51)"  >
<path style="stroke: none; stroke-width: 1; stroke-dasharray: none; stroke-linecap: butt; stroke-dashoffset: 0; stroke-linejoin: miter; stroke-miterlimit: 10; fill: rgb(255,255,255); fill-rule: nonzero; opacity: 1;" vector-effect="non-scaling-stroke"  transform=" translate(-56.52, -54.79)" d="M 61.718 44.938 L 51.33 44.938 C 50.501999999999995 44.938 49.83 45.609 49.83 46.438 L 49.83 63.142 C 49.83 63.970000000000006 50.501999999999995 64.642 51.33 64.642 C 52.158 64.642 52.83 63.97 52.83 63.141999999999996 L 52.83 56.288999999999994 L 58.134 56.288999999999994 C 58.962 56.288999999999994 59.634 55.617 59.634 54.788999999999994 C 59.634 53.96099999999999 58.962 53.288999999999994 58.134 53.288999999999994 L 52.83 53.288999999999994 L 52.83 47.937 L 61.717999999999996 47.937 C 62.546 47.937 63.217999999999996 47.265 63.217999999999996 46.437 C 63.218 45.609 62.546 44.938 61.718 44.938 z" stroke-linecap="round" />
</g>
		<g transform="matrix(2.81 0 0 2.81 83.57 -89.69)"  >
<path style="stroke: none; stroke-width: 1; stroke-dasharray: none; stroke-linecap: butt; stroke-dashoffset: 0; stroke-linejoin: miter; stroke-miterlimit: 10; fill: rgb(183,183,183); fill-rule: nonzero; opacity: 1;" vector-effect="non-scaling-stroke"  transform=" translate(-74.74, -13.08)" d="M 61.659 0 L 68.321 0 C 71.14699999999999 0 73.857 1.123 75.855 3.121 L 84.702 11.968 C 86.7 13.966 87.823 16.676000000000002 87.823 19.502 L 87.823 26.163999999999998 C 87.823 22.744999999999997 85.05099999999999 19.973999999999997 81.633 19.973999999999997 L 73.767 19.973999999999997 C 70.499 19.973999999999997 67.85 17.324999999999996 67.85 14.056999999999997 C 67.85 14.056999999999997 67.85 6.190999999999997 67.85 6.190999999999997 L 67.85 6.190999999999997 C 67.849 2.772 65.078 0 61.659 0 C 61.659 0 61.659 0 61.659 0 z" stroke-linecap="round" />
</g>
</g>
</g>
<g transform="matrix(7.53 0 0 7.17 842.87 749.97)" id="7d58a69f-bca6-4210-99a5-ca3b2e983159"  >
<polygon style="stroke: rgb(0,0,0); stroke-width: 0; stroke-dasharray: none; stroke-linecap: butt; stroke-dashoffset: 0; stroke-linejoin: miter; stroke-miterlimit: 4; fill: rgb(0,0,0); fill-rule: nonzero; opacity: 1;" vector-effect="non-scaling-stroke"  points="0,36.77 15.28,20.24 30.55,3.71 11.79,3.71 11.79,-36.77 -12.82,-36.77 -12.82,3.71 -30.55,3.71 -15.28,20.24 " />
</g>
</svg>