<?xml version="1.0" encoding="UTF-8" standalone="no" ?>
<!DOCTYPE svg PUBLIC "-//W3C//DTD SVG 1.1//EN" "http://www.w3.org/Graphics/SVG/1.1/DTD/svg11.dtd">
<svg xmlns="http://www.w3.org/2000/svg" xmlns:xlink="http://www.w3.org/1999/xlink" version="1.1" width="400" height="500" viewBox="0 0 400 500" xml:space="preserve">
<desc>Created with Fabric.js 5.2.4</desc>
<defs>
</defs>
<rect x="0" y="0" width="100%" height="100%" fill="transparent"></rect>
<g transform="matrix(1 0 0 1 200 250)" id="b63b2cca-167f-4c0c-87ba-9cdfc9520b83"  >
<rect style="stroke: none; stroke-width: 1; stroke-dasharray: none; stroke-linecap: butt; stroke-dashoffset: 0; stroke-linejoin: miter; stroke-miterlimit: 4; fill: rgb(255,255,255); fill-rule: nonzero; opacity: 1; visibility: hidden;" vector-effect="non-scaling-stroke"  x="-200" y="-250" rx="0" ry="0" width="400" height="500" />
</g>
<g transform="matrix(Infinity NaN NaN Infinity 0 0)" id="a742a924-f93b-46fa-ac8f-f938de7e8e68"  >
</g>
<g transform="matrix(2.03 0 0 2.8 604.12 690.52)" id="d2fd61b1-731e-4060-ad93-ac3475f53a8b"  >
<polygon style="stroke: rgb(0,0,0); stroke-width: 0; stroke-dasharray: none; stroke-linecap: butt; stroke-dashoffset: 0; stroke-linejoin: miter; stroke-miterlimit: 4; fill: rgb(0,0,0); fill-rule: nonzero; opacity: 1;" vector-effect="non-scaling-stroke"  points="0,36.77 15.28,20.24 30.55,3.71 11.79,3.71 11.79,-36.77 -12.82,-36.77 -12.82,3.71 -30.55,3.71 -15.28,20.24 " />
</g>
<g transform="matrix(1.46 0 0 0.98 647.06 848.41)" id="43781131-271b-4c3d-b63a-453e185a6e75"  >
<path style="stroke: rgb(0,0,0); stroke-width: 0; stroke-dasharray: none; stroke-linecap: butt; stroke-dashoffset: 0; stroke-linejoin: miter; stroke-miterlimit: 4; fill: rgb(0,0,0); fill-rule: nonzero; opacity: 1;" vector-effect="non-scaling-stroke"  transform=" translate(-50, -50)" d="M 94.75 50 C 94.75 56.213 89.514 61.25 83.054 61.25 L 16.946 61.25 C 10.486 61.25 5.25 56.213 5.25 50 L 5.25 50 C 5.25 43.787 10.486 38.75 16.945999999999998 38.75 L 83.053 38.75 C 89.514 38.75 94.75 43.787 94.75 50 L 94.75 50 z" stroke-linecap="round" />
</g>
<g transform="matrix(4.56 0 0 5.1 147.95 271.23)" id="42396cf2-afe5-40fd-89c2-e9d72f26119c"  >
<path style="stroke: rgb(0,0,0); stroke-width: 0; stroke-dasharray: none; stroke-linecap: butt; stroke-dashoffset: 0; stroke-linejoin: miter; stroke-miterlimit: 4; fill: rgb(216,212,212); fill-rule: nonzero; opacity: 1;" vector-effect="non-scaling-stroke"  transform=" translate(-50, -50)" d="M 19.11 13.441 L 66.53 13.441 L 66.53 28.966 L 80.888 28.966 L 80.888 86.559 L 19.11 86.559 L 19.11 13.441 z M 69.711 13.494 L 80.254 26 L 69.711 26 L 69.711 13.494 z" stroke-linecap="round" />
</g>
<g transform="matrix(3.19 0 0 6.45 141.4 273.4)" id="8b0974e1-0013-4cfe-ad5e-a8e3c60482d2"  >
<path style="stroke: rgb(0,0,0); stroke-width: 0; stroke-dasharray: none; stroke-linecap: butt; stroke-dashoffset: 0; stroke-linejoin: miter; stroke-miterlimit: 4; fill: rgb(10,121,14); fill-rule: nonzero; opacity: 1;" vector-effect="non-scaling-stroke"  transform=" translate(-50, -50)" d="M 94.75 50 C 94.75 56.213 89.514 61.25 83.054 61.25 L 16.946 61.25 C 10.486 61.25 5.25 56.213 5.25 50 L 5.25 50 C 5.25 43.787 10.486 38.75 16.945999999999998 38.75 L 83.053 38.75 C 89.514 38.75 94.75 43.787 94.75 50 L 94.75 50 z" stroke-linecap="round" />
</g>
<g transform="matrix(2.63 0 0 2.48 318.69 357.94)" id="d1190328-c478-4a04-9b70-9023f66453f4"  >
<polygon style="stroke: rgb(0,0,0); stroke-width: 0; stroke-dasharray: none; stroke-linecap: butt; stroke-dashoffset: 0; stroke-linejoin: miter; stroke-miterlimit: 4; fill: rgb(0,0,0); fill-rule: nonzero; opacity: 1;" vector-effect="non-scaling-stroke"  points="0,36.77 15.28,20.24 30.55,3.71 11.79,3.71 11.79,-36.77 -12.82,-36.77 -12.82,3.71 -30.55,3.71 -15.28,20.24 " />
</g>
<g transform="matrix(1.67 0 0 1.27 318.78 472.72)" id="0cd32b7e-5ddd-4ffe-8a34-1b68f07dcaf6"  >
<path style="stroke: rgb(0,0,0); stroke-width: 0; stroke-dasharray: none; stroke-linecap: butt; stroke-dashoffset: 0; stroke-linejoin: miter; stroke-miterlimit: 4; fill: rgb(0,0,0); fill-rule: nonzero; opacity: 1;" vector-effect="non-scaling-stroke"  transform=" translate(-50, -50)" d="M 94.75 50 C 94.75 56.213 89.514 61.25 83.054 61.25 L 16.946 61.25 C 10.486 61.25 5.25 56.213 5.25 50 L 5.25 50 C 5.25 43.787 10.486 38.75 16.945999999999998 38.75 L 83.053 38.75 C 89.514 38.75 94.75 43.787 94.75 50 L 94.75 50 z" stroke-linecap="round" />
</g>
<g transform="matrix(0.87 0 0 0.95 148.88 276.29)" style="" id="4248bd90-8def-4b3a-8d8b-114513fdb272"  >
		<text xml:space="preserve" font-family="Raleway" font-size="135" font-style="normal" font-weight="700" style="stroke: none; stroke-width: 1; stroke-dasharray: none; stroke-linecap: butt; stroke-dashoffset: 0; stroke-linejoin: miter; stroke-miterlimit: 4; fill: rgb(255,255,255); fill-rule: nonzero; opacity: 1; white-space: pre;" ><tspan x="-153.43" y="42.41" >X</tspan><tspan x="-59.99" y="42.41" >M</tspan><tspan x="63.38" y="42.41" >L</tspan></text>
</g>
</svg>